<svg width="41" height="34" viewBox="0 0 41 34" fill="none" xmlns="http://www.w3.org/2000/svg">
<path d="M24.25 25.0834C24.25 29.6399 27.947 33.2501 32.4167 33.2501C36.8864 33.2501 40.5834 29.6399 40.5834 25.0834C40.5834 20.527 36.8864 16.9167 32.4167 16.9167C27.862 16.9167 24.25 20.5287 24.25 25.0834ZM26.4167 25.1668C26.4167 21.8882 29.1381 19.1668 32.4167 19.1668C35.6953 19.1668 38.4167 21.8882 38.4167 25.1668C38.4167 28.4454 35.6953 31.1668 32.4167 31.1668C29.1381 31.1668 26.4167 28.4454 26.4167 25.1668Z" fill="#F4A040" stroke="#F4A040" stroke-width="0.5"/>
<path d="M36.3334 24.25V24H36.0834H29H28.75V24.25V25.9167V26.1667H29H36.0834H36.3334V25.9167V24.25Z" fill="#F4A040" stroke="#F4A040" stroke-width="0.5"/>
<path d="M33.6667 21.5833V21.3333H33.4167H31.75H31.5V21.5833V28.6666V28.9166H31.75H33.4167H33.6667V28.6666V21.5833Z" fill="#F4A040" stroke="#F4A040" stroke-width="0.5"/>
<path d="M22.1667 27.8334H22.4167V27.5834V25.9167V25.6667H22.1667H2.91667V2.91667H32.4167V15.0834V15.3334H32.6667H34.3334H34.5834V15.0834V2.08334C34.5834 1.36193 33.9715 0.75 33.2501 0.75H2.08334C1.36193 0.75 0.75 1.36193 0.75 2.08334V26.5C0.75 27.2215 1.36193 27.8334 2.08334 27.8334H22.1667Z" fill="#F4A040" stroke="#F4A040" stroke-width="0.5"/>
<path d="M17.7777 14.8744L17.916 14.9669L18.0547 14.875L30.8881 6.37502L31.0943 6.23844L30.9599 6.03078L30.0433 4.61411L29.9058 4.40166L29.695 4.54168L17.9174 12.366L5.63931 4.12567L5.42822 3.98399L5.2901 4.19744L4.37344 5.61411L4.23966 5.82085L4.44435 5.95773L17.7777 14.8744Z" fill="#F4A040" stroke="#F4A040" stroke-width="0.5"/>
</svg>
