<svg width="30" height="38" viewBox="0 0 30 38" fill="none" xmlns="http://www.w3.org/2000/svg">
<path d="M14.7 37.7C14.3 37.7 14 37.5 13.7 37.3C13.1 36.7 0 22.5 0 14.7C0 6.6 6.6 0 14.7 0C22.8 0 29.4 6.6 29.4 14.7C29.4 22.5 16.3 36.7 15.7 37.3C15.4 37.6 15 37.7 14.7 37.7ZM14.7 2.6C8.1 2.6 2.7 8 2.7 14.6C2.7 19.8 10.7 29.8 14.7 34.4C18.8 29.8 26.7 19.8 26.7 14.6C26.7 8 21.3 2.6 14.7 2.6Z" fill="#F4A040"/>
<path d="M14.7 20.5999C11.1 20.5999 8.1 17.5999 8.1 13.9999C8.1 10.3999 11.1 7.3999 14.7 7.3999C18.3 7.3999 21.3 10.3999 21.3 13.9999C21.3 17.6999 18.3 20.5999 14.7 20.5999ZM14.7 9.9999C12.5 9.9999 10.7 11.7999 10.7 13.9999C10.7 16.1999 12.5 17.9999 14.7 17.9999C16.9 17.9999 18.7 16.1999 18.7 13.9999C18.6 11.7999 16.9 9.9999 14.7 9.9999Z" fill="#F4A040"/>
</svg>
