<svg width="39" height="33" viewBox="0 0 39 33" fill="none" xmlns="http://www.w3.org/2000/svg">
<path d="M23.3906 23.22H2.83798V2.83798H36.162V23.22H32.8391H32.2833H32.1928L32.1232 23.2779L31.6468 23.6749L31.6464 23.6753L25.6519 28.6956L25.227 24.8715L25.0682 23.4423L25.0435 23.22H24.8197H23.3906ZM37.5236 0.75H1.2382C1.12026 0.75 0.985892 0.779653 0.882773 0.882773C0.779653 0.985892 0.75 1.12026 0.75 1.2382V24.8991C0.75 25.0171 0.779653 25.1514 0.882773 25.2546C0.985892 25.3577 1.12026 25.3873 1.2382 25.3873H23.1679L23.9349 31.9831C23.9456 32.2505 24.202 32.3745 24.4227 32.3745C24.4245 32.3745 24.4267 32.3745 24.4293 32.3745C24.458 32.3751 24.5374 32.3764 24.614 32.3381C24.6533 32.3185 24.6827 32.2939 24.7016 32.2768C24.7174 32.2626 24.7346 32.2456 24.7505 32.2297L32.9298 25.3873H37.7618C37.8797 25.3873 38.0141 25.3577 38.1172 25.2546C38.2203 25.1514 38.25 25.0171 38.25 24.8991V1.397C38.25 1.18684 38.1429 1.01942 38.0046 0.911836C37.869 0.806357 37.6952 0.75 37.5236 0.75Z" fill="#F4A040" stroke="#F4A040" stroke-width="0.5"/>
<path d="M12.9099 14.2714C14.2319 14.2714 15.3036 13.1997 15.3036 11.8777C15.3036 10.5556 14.2319 9.48389 12.9099 9.48389C11.5878 9.48389 10.5161 10.5556 10.5161 11.8777C10.5161 13.1997 11.5878 14.2714 12.9099 14.2714Z" fill="#F4A040" stroke="#F4A040" stroke-width="0.5"/>
<path d="M19.5 14.2714C20.822 14.2714 21.8938 13.1997 21.8938 11.8777C21.8938 10.5556 20.822 9.48389 19.5 9.48389C18.1779 9.48389 17.1062 10.5556 17.1062 11.8777C17.1062 13.1997 18.1779 14.2714 19.5 14.2714Z" fill="#F4A040" stroke="#F4A040" stroke-width="0.5"/>
<path d="M26.0901 14.2714C27.4122 14.2714 28.4839 13.1997 28.4839 11.8777C28.4839 10.5556 27.4122 9.48389 26.0901 9.48389C24.7681 9.48389 23.6964 10.5556 23.6964 11.8777C23.6964 13.1997 24.7681 14.2714 26.0901 14.2714Z" fill="#F4A040" stroke="#F4A040" stroke-width="0.5"/>
</svg>
