<svg width="37" height="36" viewBox="0 0 37 36" fill="none" xmlns="http://www.w3.org/2000/svg">
<path fill-rule="evenodd" clip-rule="evenodd" d="M28.7267 25.2794C27.3478 24.475 25.5093 23.5558 23.9006 24.2452C22.6367 24.7048 21.8323 26.6582 21.028 27.6924C20.5683 28.152 20.1087 28.2669 19.5342 28.0371C14.823 26.1986 11.2609 23.0961 8.73292 18.7297C8.27329 18.0402 8.3882 17.5806 8.84783 16.8912C9.65218 15.9719 10.5714 14.9377 10.8012 13.6738C11.0311 12.4098 10.3416 11.0309 9.88199 9.88185C9.19255 8.50296 8.50311 6.43464 7.12423 5.63029C5.74534 4.94085 4.13665 5.40048 2.87267 6.31973C0.919255 7.92843 0 10.4564 0 12.9843C0 13.6738 0.114907 14.3632 0.229814 15.0527C0.689441 16.6614 1.37888 18.27 2.29814 19.7638C2.98758 20.9129 3.67702 21.9471 4.48137 22.9812C7.00932 26.4284 10.1118 29.3011 13.6739 31.5992C15.5124 32.7483 17.4658 33.6676 19.4193 34.357C21.7174 35.0464 23.6708 35.8508 26.0839 35.3912C28.6118 34.9315 31.1398 33.3228 32.1739 30.9098C32.5186 30.2204 32.6335 29.416 32.4037 28.6117C32.059 27.003 29.9907 26.0837 28.7267 25.2794Z" fill="#F4A040"/>
<path d="M29.1863 19.3044C29.1863 19.5342 28.9565 19.6491 28.8416 19.5342L27.0031 19.0746C26.7733 19.0746 26.6584 18.8448 26.7733 18.7299C26.7733 18.7299 26.8882 18.1553 26.8882 17.8106C26.8882 17.5808 26.8882 17.2361 26.8882 17.0063C26.6584 12.9845 23.5559 9.88203 19.5342 9.65222C19.4193 9.65222 19.1895 9.65222 19.0745 9.65222C18.1553 9.65222 17.3509 9.76713 16.5466 10.1118C16.3168 10.2268 16.2019 10.1118 16.087 9.88203L15.3975 8.15843C15.2826 7.92862 15.3975 7.6988 15.6273 7.6988C16.7764 7.23917 17.9255 7.12427 19.0745 7.12427C19.3044 7.12427 19.5342 7.12427 19.6491 7.12427C24.9348 7.35408 29.0714 11.6056 29.3013 16.8913C29.3013 17.2361 29.3013 17.5808 29.3013 17.9255C29.3013 18.5 29.1863 19.3044 29.1863 19.3044Z" fill="#F4A040"/>
<path d="M37 19.0745C37 19.3044 36.7702 19.4193 36.6553 19.3044L34.8168 19.0745C34.587 19.0745 34.472 18.8447 34.587 18.7298C34.587 18.7298 34.7019 18.1553 34.7019 17.6957C34.7019 17.1211 34.7019 16.6615 34.7019 16.087C34.1273 8.73292 28.2671 2.98758 20.913 2.52795C20.5683 2.52795 20.1087 2.52795 19.764 2.52795C18.6149 2.52795 17.4658 2.75776 16.4317 2.98758C16.2019 2.98758 16.0869 2.98758 15.972 2.75776L15.3975 1.03416C15.3975 0.804348 15.3975 0.689441 15.6273 0.574534C17.0062 0.229814 18.3851 0 19.6491 0C20.1087 0 20.5683 0 21.0279 0C29.646 0.459627 36.5404 7.23913 37 15.9721C37 16.5466 37 17.236 37 17.8106C37 18.3851 37 19.0745 37 19.0745Z" fill="#F4A040"/>
</svg>
