<svg width="38" height="38" viewBox="0 0 38 38" fill="none" xmlns="http://www.w3.org/2000/svg">
<path d="M0 19C0 29.4934 8.50659 38 19 38C29.4934 38 38 29.4934 38 19C38 8.50659 29.4934 0 19 0C8.50659 0 0 8.50659 0 19Z" fill="#5A5A5A" fill-opacity="0.7"/>
<path d="M9.61865 18.6536C14.7189 16.4315 18.1199 14.9666 19.8216 14.2588C24.6802 12.2379 25.6898 11.8868 26.3479 11.8751C26.4926 11.8727 26.8162 11.9086 27.0258 12.0786C27.2028 12.2223 27.2515 12.4163 27.2748 12.5524C27.2981 12.6886 27.3271 12.9988 27.3041 13.2412C27.0408 16.0076 25.9015 22.721 25.3219 25.8195C25.0767 27.1306 24.5938 27.5701 24.1263 27.6132C23.1103 27.7067 22.3388 26.9417 21.3547 26.2967C19.8149 25.2873 18.945 24.659 17.4503 23.674C15.723 22.5357 16.8428 21.9101 17.8272 20.8876C18.0848 20.6201 22.5613 16.5484 22.6479 16.179C22.6588 16.1328 22.6688 15.9606 22.5665 15.8697C22.4642 15.7788 22.3132 15.8098 22.2043 15.8346C22.0498 15.8696 19.59 17.4955 14.8246 20.7123C14.1264 21.1917 13.494 21.4253 12.9273 21.4131C12.3026 21.3996 11.101 21.0599 10.2077 20.7695C9.11208 20.4134 8.24128 20.2251 8.3171 19.6202C8.3566 19.3051 8.79045 18.9829 9.61865 18.6536Z" fill="white"/>
</svg>
