<svg width="38" height="38" viewBox="0 0 38 38" fill="none" xmlns="http://www.w3.org/2000/svg">
<path d="M0 19C0 29.4934 8.50659 38 19 38C29.4934 38 38 29.4934 38 19C38 8.50659 29.4934 0 19 0C8.50659 0 0 8.50659 0 19Z" fill="#5A5A5A" fill-opacity="0.7"/>
<path d="M20.1699 27.8175C11.2812 27.8175 6.21125 21.88 6 12H10.4525C10.5988 19.2517 13.8812 22.3233 16.4812 22.9567V12H20.6738V18.2542C23.2413 17.985 25.9385 15.135 26.8485 12H31.0411C30.3423 15.8633 27.4173 18.7133 25.3373 19.885C27.4173 20.835 30.7487 23.3208 32.0162 27.8175H27.4011C26.4098 24.8092 23.9401 22.4817 20.6738 22.165V27.8175H20.1699Z" fill="white"/>
</svg>
