<svg width="39" height="38" viewBox="0 0 39 38" fill="none" xmlns="http://www.w3.org/2000/svg">
<path d="M0 19C0 29.4934 8.73045 38 19.5 38C30.2696 38 39 29.4934 39 19C39 8.50659 30.2696 0 19.5 0C8.73045 0 0 8.50659 0 19Z" fill="#5A5A5A" fill-opacity="0.7"/>
<path fill-rule="evenodd" clip-rule="evenodd" d="M26.325 12.2313C24.4969 10.45 22.0594 9.5 19.5 9.5C14.1375 9.5 9.75 13.775 9.75 19C9.75 20.6625 10.2375 22.325 11.0906 23.75L9.75 28.5L14.8688 27.1938C16.3313 27.9062 17.9156 28.3813 19.5 28.3813C24.8625 28.3813 29.25 24.1062 29.25 18.8812C29.25 16.3875 28.1531 14.0125 26.325 12.2313ZM19.5 26.8375C18.0375 26.8375 16.575 26.4813 15.3563 25.7688L15.1125 25.65L12.0656 26.4812L12.9188 23.6312L12.675 23.275C11.8219 21.9688 11.4562 20.5438 11.4562 19.1188C11.4562 14.8438 15.1125 11.2812 19.5 11.2812C21.6938 11.2812 23.6438 12.1125 25.2281 13.5375C26.8125 15.0812 27.5438 16.9813 27.5438 19.1188C27.5438 23.275 24.0094 26.8375 19.5 26.8375ZM23.8875 20.9C23.6438 20.7812 22.425 20.1875 22.1813 20.1875C21.9375 20.0688 21.8156 20.0688 21.6937 20.3063C21.5719 20.5438 21.0844 21.0187 20.9625 21.2562C20.8406 21.375 20.7187 21.375 20.475 21.375C20.2312 21.2563 19.5 21.0188 18.525 20.1875C17.7938 19.5938 17.3063 18.7625 17.1844 18.525C17.0625 18.2875 17.1844 18.1687 17.3063 18.05C17.4281 17.9312 17.55 17.8125 17.6719 17.6937C17.7937 17.575 17.7938 17.4563 17.9156 17.3375C18.0375 17.2188 17.9156 17.1 17.9156 16.9813C17.9156 16.8625 17.4281 15.675 17.1844 15.2C17.0625 14.8438 16.8188 14.8438 16.6969 14.8438C16.575 14.8438 16.4531 14.8438 16.2094 14.8438C16.0875 14.8438 15.8437 14.8438 15.6 15.0812C15.3562 15.3187 14.7469 15.9125 14.7469 17.1C14.7469 18.2875 15.6 19.3562 15.7219 19.5938C15.8437 19.7125 17.4281 22.2063 19.8656 23.1562C21.9375 23.9875 22.3031 23.75 22.7906 23.75C23.2781 23.75 24.2531 23.1562 24.375 22.6813C24.6187 22.0875 24.6188 21.6125 24.4969 21.6125C24.375 21.0188 24.1313 21.0188 23.8875 20.9Z" fill="white"/>
</svg>
