<svg width="471" height="57" viewBox="0 0 471 57" fill="none" xmlns="http://www.w3.org/2000/svg">
<g clip-path="url(#clip0_236_294)">
<path d="M30.48 0.0703125L0 56.0003H16.16L38.81 13.8003L49.52 33.2103H46.45C39.18 33.2103 35.62 37.5703 31.45 42.6203C30.88 43.3103 30.3 44.0203 29.69 44.7403L28.01 46.7403H57.01L62.13 56.0003H84.66L54.14 0.0703125H30.48Z" fill="#111111"/>
<path d="M250.81 0.0703125L220.33 56.0003H236.49L259.13 13.8003L269.85 33.1803H266.78C259.51 33.1803 255.95 37.5403 251.78 42.5903C251.22 43.2803 250.64 43.9903 250.03 44.7103L248.34 46.7103H277.34L282.45 56.0003H305L274.47 0.0703125H250.81Z" fill="#111111"/>
<path d="M79.0005 9.45C78.4405 10.14 75.5605 13.58 75.5605 13.58H104.821V56.05H124.151V13.6H135.731C143.001 13.6 146.561 9.24 150.681 4.19L154.141 0.07L94.0005 0C86.7005 0 83.1405 4.4 79.0005 9.45Z" fill="#111111"/>
<path d="M395.151 9.45L391.711 13.58H421.001V56.05H440.301V13.6H451.881C459.151 13.6 462.711 9.24 466.831 4.19L470.271 0.07L410.101 0C402.831 0 399.271 4.4 395.151 9.45Z" fill="#111111"/>
<path d="M213.8 51.8C209.68 46.8 206.12 42.39 198.8 42.39H182V0H162.66V56.1L217.24 55.92L215.55 53.92L213.8 51.8Z" fill="#111111"/>
<path d="M369.621 33.0004L348.701 10.6704C343.451 5.00035 338.921 0.110352 330.231 0.110352H314.061V56.0004H327.631V19.0004L362.691 56.0004H383.191V0.120352H369.621V33.0004Z" fill="#111111"/>
</g>
<defs>
<clipPath id="clip0_236_294">
<rect width="470.27" height="56.1" fill="white"/>
</clipPath>
</defs>
</svg>
