<svg width="32" height="32" viewBox="0 0 32 32" fill="none" xmlns="http://www.w3.org/2000/svg">
<path d="M16 32C24.8366 32 32 24.8366 32 16C32 7.16344 24.8366 0 16 0C7.16344 0 0 7.16344 0 16C0 24.8366 7.16344 32 16 32Z" fill="#FF6801"/>
<path d="M8.67158 18.6871H7.61306L4.76318 23.4097H5.94385L6.55453 22.4326H9.89295L10.5036 23.4097H11.6029L8.67158 18.6871ZM7.00237 21.5369L8.14232 19.6642L9.28227 21.5369H7.00237Z" fill="white"/>
<path d="M13.6799 19.827L12.2956 22.3105L10.9114 19.827H9.79639L11.9733 23.369H12.7435L14.6977 19.827H13.6799Z" fill="white"/>
<path d="M13.8428 19.827V20.682H15.4306V23.369H16.4077V20.682H17.9954V19.827H13.8428Z" fill="white"/>
<path d="M22.5548 21.1298C22.5548 20.9669 22.5141 20.8041 22.5141 20.6819C22.4734 20.5191 22.4327 20.3969 22.3512 20.2748C22.2698 20.1527 22.1477 20.0305 21.9848 19.9898C21.8627 19.9084 21.6998 19.8677 21.4963 19.827C21.2927 19.7863 21.0891 19.7863 20.8449 19.7863H19.6235C19.3792 19.7863 19.1349 19.7863 18.9721 19.827C18.7685 19.8677 18.6057 19.9084 18.4835 19.9898C18.3207 20.0712 18.1986 20.1527 18.1171 20.2748C18.0357 20.3969 17.995 20.5191 17.9543 20.6819C17.9136 20.8041 17.9136 20.9669 17.9136 21.1298C17.9136 21.2926 17.9136 21.4555 17.9136 21.6183C17.9136 21.7812 17.9136 21.944 17.9136 22.1069C17.9136 22.2697 17.9543 22.4326 17.9543 22.5547C17.995 22.7176 18.0357 22.8397 18.1171 22.9618C18.1986 23.084 18.3207 23.1654 18.4835 23.2468C18.6057 23.3282 18.7685 23.369 18.9721 23.4097C19.1757 23.4504 19.3792 23.4504 19.6235 23.4504H20.8449C21.0891 23.4504 21.3334 23.4504 21.4963 23.4097C21.6998 23.369 21.8627 23.3282 21.9848 23.2468C22.1477 23.1654 22.2698 23.084 22.3512 22.9618C22.4327 22.8397 22.4734 22.7176 22.5141 22.5547C22.5548 22.4326 22.5548 22.2697 22.5548 22.1069C22.5548 21.944 22.5548 21.7812 22.5548 21.6183C22.5548 21.4148 22.5548 21.2519 22.5548 21.1298ZM21.5777 21.6183C21.5777 21.8219 21.5777 21.944 21.5777 22.1069C21.5777 22.229 21.5777 22.3104 21.537 22.3919C21.537 22.4733 21.4963 22.514 21.4963 22.514C21.4963 22.514 21.4556 22.5547 21.4148 22.5547C21.3741 22.5547 21.2927 22.5954 21.2113 22.5954C21.0891 22.5954 20.967 22.5954 20.8042 22.5954H19.5828C19.4199 22.5954 19.2571 22.5954 19.1757 22.5954C19.0535 22.5954 18.9721 22.5547 18.9721 22.5547C18.9314 22.5547 18.9314 22.514 18.9314 22.514C18.9314 22.514 18.8907 22.4733 18.8907 22.3919C18.8907 22.3104 18.85 22.229 18.85 22.1069C18.85 21.9847 18.85 21.8219 18.85 21.6183C18.85 21.4148 18.85 21.2926 18.85 21.1298C18.85 21.0076 18.85 20.9262 18.8907 20.8448C18.8907 20.7634 18.9314 20.7226 18.9314 20.7226L18.9721 20.6819C19.0128 20.6819 19.0942 20.6412 19.1757 20.6412C19.2978 20.6412 19.4199 20.6412 19.5828 20.6412H20.8042C20.967 20.6412 21.1299 20.6412 21.2113 20.6412C21.3334 20.6412 21.4148 20.6819 21.4148 20.6819C21.4556 20.6819 21.4556 20.7226 21.4556 20.7226C21.4556 20.7226 21.4963 20.7634 21.4963 20.8448C21.4963 20.9262 21.537 21.0076 21.537 21.1298C21.5777 21.2519 21.5777 21.4148 21.5777 21.6183Z" fill="white"/>
<path d="M28.0506 20.1119V19.9083C28.0506 19.7455 28.0506 19.6233 28.0099 19.5012C27.9692 19.3791 27.9285 19.2569 27.8471 19.1348C27.7656 19.0127 27.6842 18.9312 27.5214 18.8498C27.3992 18.7684 27.2364 18.7277 27.0735 18.687C26.9107 18.6462 26.7071 18.6055 26.4628 18.6055C26.2593 18.6055 25.9743 18.5648 25.6893 18.5648H25.1193C24.7529 18.5648 24.4272 18.5648 24.183 18.6055C23.898 18.6462 23.6944 18.687 23.4908 18.7277C23.2873 18.7684 23.1244 18.8498 22.9616 18.9312C22.8394 19.0127 22.7173 19.1348 22.6359 19.2162C22.5545 19.3384 22.473 19.4605 22.473 19.5826C22.4323 19.7048 22.4323 19.8269 22.4323 19.9898C22.4323 20.1119 22.4323 20.234 22.473 20.3562C22.473 20.4783 22.5545 20.6004 22.5952 20.7226C22.6766 20.8447 22.758 20.9261 22.8802 21.0076C23.0023 21.089 23.1651 21.1704 23.3687 21.2111C23.5316 21.2518 23.7758 21.2926 24.0201 21.3333C24.2644 21.374 24.5901 21.374 24.9565 21.374H25.73C26.0557 21.374 26.3 21.374 26.4628 21.4147C26.6664 21.4554 26.7885 21.4961 26.8293 21.4961C26.9107 21.5368 26.9514 21.5775 26.9514 21.6183C26.9921 21.6997 26.9921 21.8218 26.9921 21.944C26.9921 22.0661 26.9921 22.1475 26.9514 22.2289C26.9107 22.3104 26.87 22.3511 26.7478 22.3918C26.6257 22.4325 26.5036 22.4732 26.3 22.5139C26.0964 22.5546 25.8114 22.5546 25.4857 22.5546H24.7122C24.4272 22.5546 24.183 22.5546 24.0201 22.5546C23.8573 22.5546 23.7351 22.5139 23.613 22.4732C23.5316 22.4325 23.4908 22.3918 23.4501 22.3511C23.4094 22.3104 23.4094 22.2289 23.4094 22.0254V21.8218H22.3916V22.0254C22.3916 22.1882 22.3916 22.3104 22.4323 22.4325C22.473 22.5546 22.5137 22.6768 22.5952 22.7989C22.6766 22.9211 22.758 23.0025 22.8802 23.0839C23.0023 23.1653 23.1651 23.206 23.328 23.2875C23.4908 23.3282 23.6944 23.3689 23.9387 23.3689C24.1422 23.4096 24.4272 23.4096 24.7122 23.4096H25.4857C25.8114 23.4096 26.0964 23.4096 26.3407 23.3689C26.585 23.3282 26.8293 23.2875 26.9921 23.2468C27.1957 23.206 27.3585 23.1246 27.4807 23.0432C27.6028 22.9618 27.7249 22.8396 27.8064 22.7175C27.8878 22.5954 27.9285 22.4732 27.9692 22.3511C28.0099 22.2289 28.0099 22.1068 28.0099 21.944C28.0099 21.8218 28.0099 21.659 27.9692 21.5368C27.9692 21.4147 27.9285 21.2926 27.8471 21.1704C27.7656 21.0483 27.6842 20.9669 27.5621 20.8447C27.4399 20.7633 27.3178 20.6819 27.1142 20.6412C26.9514 20.6004 26.7478 20.5597 26.5036 20.519C26.2593 20.4783 25.9743 20.4783 25.6893 20.4783H24.9158C24.6715 20.4783 24.4679 20.4783 24.2644 20.4783C24.1015 20.4783 23.9387 20.4376 23.8165 20.4376C23.6944 20.4376 23.613 20.3969 23.5723 20.3562C23.5316 20.3155 23.4908 20.3155 23.4501 20.2747C23.4094 20.234 23.4094 20.1933 23.4094 20.1526C23.4094 20.0712 23.4094 20.0305 23.4094 19.949C23.4094 19.8269 23.4094 19.7455 23.4501 19.6641C23.4908 19.6233 23.5316 19.5419 23.6537 19.5012C23.7758 19.4605 23.9387 19.4198 24.183 19.3791C24.4272 19.3384 24.7529 19.3384 25.1193 19.3384H25.6893C25.9743 19.3384 26.2186 19.3384 26.3814 19.3384C26.5443 19.3384 26.6664 19.3791 26.7885 19.4198C26.87 19.4605 26.9107 19.5012 26.9514 19.5419C26.9921 19.5826 26.9921 19.6641 26.9921 19.8269V20.0305H28.0506V20.1119Z" fill="white"/>
<path d="M25.771 9.32315C25.771 7.65394 24.4275 6.31042 22.7583 6.31042C21.0891 6.31042 19.7456 7.65394 19.7456 9.32315C19.7456 10.341 20.2748 11.2366 21.0484 11.8066C21.0484 12.0102 21.0076 12.2952 20.8448 12.4987C20.6819 12.6616 20.4377 12.7837 20.0713 12.7837C19.3792 12.7837 18.1171 12.3359 17.8321 10.7074C17.425 8.42747 16.1222 6.83969 14.6158 6.75826C13.883 6.71755 12.9466 6.92111 12.4987 7.65394C12.0916 7.77607 11.5624 8.14249 11.0738 9.03816C10.9517 9.24172 10.8702 9.486 10.8295 9.68956L10.7481 9.77098C10.7074 9.8117 9.60816 10.7888 7.93895 12.0102C5.94403 13.4758 7.28755 17.3435 7.32826 17.5064L7.4504 17.8321H13.1909H14.0051H16.4071L16 15.715C16.7736 15.7964 17.6285 15.9186 18.4021 16.0407C19.2977 16.1628 20.2341 16.3257 21.0891 16.3664C21.9033 16.4478 22.5954 16.2036 23.1654 15.6743C24.3054 14.6158 24.4682 12.6209 24.5089 11.888C25.201 11.2773 25.771 10.3817 25.771 9.32315ZM22.7583 11.3995C21.6183 11.3995 20.6819 10.4631 20.6819 9.32315C20.6819 8.1832 21.6183 7.24681 22.7583 7.24681C23.8982 7.24681 24.8346 8.1832 24.8346 9.32315C24.8346 10.4631 23.8982 11.3995 22.7583 11.3995ZM13.6387 15.7964C13.883 15.6336 14.2901 15.5929 14.9415 15.5929L15.1858 16.855H13.9237H13.8423C13.8015 16.6107 13.7201 16.2443 13.6387 15.7964ZM12.7837 15.3893L12.6616 15.5522L12.7837 16.1221C12.8244 16.4478 12.8652 16.6921 12.9059 16.855H10.8702L10.5853 16.1221H9.89314L9.60816 16.855H7.97966C7.85752 16.4071 7.1247 13.6387 8.34607 12.7023C9.36388 11.9695 10.1374 11.3181 10.6667 10.8702C11.0331 12.9466 13.5166 14.0865 14.0865 14.2901L14.1272 14.2494V14.2901L14.2087 14.3308L14.0865 13.3537V13.313H14.0458C13.9644 13.313 11.3995 12.2137 11.6031 10.1781V10.1374C11.6438 9.93383 11.7252 9.68956 11.8473 9.44529C11.9695 9.20101 12.0916 9.03816 12.2138 8.91602C12.2952 9.44528 12.6209 10.056 13.1501 10.7481L13.1909 10.8295L13.5573 9.85241V9.8117C13.028 9.07887 12.9059 8.63104 13.1501 8.1832C13.3537 7.81679 13.883 7.61322 14.4937 7.65394C15.5522 7.69465 16.5293 9.03816 16.855 10.8702C17.2621 13.1094 19.0127 13.6794 19.9898 13.6794C20.6412 13.6794 21.1298 13.4758 21.4555 13.0687C21.6998 12.7837 21.7812 12.458 21.8626 12.173C22.1476 12.2544 22.3919 12.2952 22.7176 12.2952C22.9618 12.2952 23.2061 12.2544 23.4097 12.2137C23.3283 12.9873 23.1247 14.2494 22.3919 14.9415C22.0255 15.2672 21.5776 15.43 21.0484 15.3893C20.2341 15.3079 19.2977 15.1857 18.4021 15.0636C15.7965 14.6565 13.5166 14.3308 12.7837 15.3893Z" fill="white"/>
<path d="M14.5746 10.5852H14.4932L14.5339 11.4402H14.5746C14.8189 11.4402 14.9003 11.5216 14.9817 11.7252V11.7659H15.8367L15.8774 11.6844C15.5924 10.8295 14.8189 10.6259 14.5746 10.5852Z" fill="white"/>
</svg>
