<svg width="85" height="12" viewBox="0 0 85 12" fill="none" xmlns="http://www.w3.org/2000/svg">
<path d="M24.8403 1.62664H14.9088V0H14.3245L13.9212 1.62664H12.8365H3.00172L1.91812 5.99906H0.141355L0 6.57032L1.7488 6.67937L0.833391 10.3722H10.7642V12H11.3485L11.7518 10.3722H12.8361H22.6709L23.7549 5.99981H25.5316L25.673 5.42854L23.9242 5.31912L24.8403 1.62664ZM23.2571 5.27762L19.4042 5.03877C17.0363 4.88407 15.1639 4.82483 14.933 2.28318H24.0001L23.2571 5.27762ZM2.41589 6.72125L6.26952 6.96085C8.63741 7.11405 10.5098 7.17366 10.7407 9.71644H1.67321L2.41589 6.72125ZM22.1569 9.71644H12.8365H11.915L12.8365 5.99906H2.59542L3.51649 2.28318H12.8365H13.7579L12.8365 5.99981H23.0787L22.1569 9.71644Z" fill="#404041"/>
<path d="M64.0838 8.0287L65.0782 4.01926C65.1957 3.54799 65.5249 3.26877 66.0261 3.26877H71.3405H71.6799L72.0858 1.63043H71.3401H63.4016C61.8493 1.63043 60.5582 2.1534 60.1542 3.78231L59.0373 8.28566C59.035 8.2966 59.0328 8.30792 59.0305 8.3181C58.95 8.65845 58.9568 8.95427 59.0305 9.20821C59.2573 9.99681 60.1304 10.3764 61.0877 10.3764H61.6849H69.9164L70.3253 8.72788H64.6507C64.1386 8.7275 63.953 8.5562 64.0838 8.0287Z" fill="#404041"/>
<path d="M46.6384 1.65454H46.2185H40.782L37.507 5.78547L36.3187 1.65454H31.4223L29.2593 10.376H31.4136L32.7909 4.82179L34.3904 10.3639H36.5066L40.8746 4.8648L39.5291 10.376H44.4746L46.2185 3.34683L46.6384 1.65454Z" fill="#404041"/>
<path d="M81.9652 1.67828H77.1618H76.8451L71.3402 9.33907L70.5952 10.376H71.3402H73.072L74.2281 8.77007H77.1618H79.4798L80.0365 10.376H84.9998L81.9652 1.67828ZM77.1618 7.10947H75.4232L77.1618 4.6946L77.7628 3.85808L78.8996 7.10947H77.1618Z" fill="#404041"/>
<path d="M59.0369 3.14685C59.1098 2.81179 59.1011 2.54993 59.0308 2.34504C58.8388 1.78962 58.1899 1.65454 57.4578 1.65454H47.9904L47.5844 3.29061H53.617C53.877 3.29061 54.0002 3.37702 53.9277 3.66643L53.6684 4.71425C53.5815 5.06139 53.2984 5.14214 52.9605 5.14214H49.8631L49.4565 6.7801H52.6948C52.9752 6.7801 53.143 6.89858 53.072 7.1876L52.8002 8.28109C52.7088 8.65049 52.5889 8.72708 52.1963 8.72708H46.2178H46.206L45.7979 10.3756H46.2178H55.6047C56.1088 10.3756 56.5575 10.2126 56.9105 9.92735C57.2677 9.63832 57.5307 9.22062 57.6562 8.71727L58.0326 7.20119C58.1819 6.59672 57.9004 6.20204 57.3644 5.90622C58.2095 5.62209 58.5013 5.3074 58.716 4.44371C58.7254 4.40485 58.753 4.29467 58.787 4.16298C58.8638 3.86339 58.9692 3.44758 59.0308 3.17817L59.0369 3.14685Z" fill="#404041"/>
</svg>
