<svg width="74" height="22" viewBox="0 0 74 22" fill="none" xmlns="http://www.w3.org/2000/svg">
<path d="M15.1961 21.2537C18.3026 21.2537 20.821 18.7337 20.821 15.6251C20.821 12.5166 18.3026 9.99658 15.1961 9.99658C12.0895 9.99658 9.57117 12.5166 9.57117 15.6251C9.57117 18.7337 12.0895 21.2537 15.1961 21.2537Z" fill="#97CF26"/>
<path d="M4.62273 18.2451C6.06877 18.2451 7.24101 17.0721 7.24101 15.6251C7.24101 14.1781 6.06877 13.0051 4.62273 13.0051C3.1767 13.0051 2.00446 14.1781 2.00446 15.6251C2.00446 17.0721 3.1767 18.2451 4.62273 18.2451Z" fill="#A169F7"/>
<path d="M15.196 8.66756C17.1955 8.66756 18.8165 7.04556 18.8165 5.04472C18.8165 3.04388 17.1955 1.42188 15.196 1.42188C13.1964 1.42188 11.5755 3.04388 11.5755 5.04472C11.5755 7.04556 13.1964 8.66756 15.196 8.66756Z" fill="#FF6163"/>
<path d="M4.6227 9.6706C7.17575 9.6706 9.24541 7.5996 9.24541 5.04489C9.24541 2.49019 7.17575 0.419189 4.6227 0.419189C2.06965 0.419189 0 2.49019 0 5.04489C0 7.5996 2.06965 9.6706 4.6227 9.6706Z" fill="#00AAFF"/>
<path d="M35.4447 18.2143H38.3647L32.957 3.48022H30.839L25.4304 18.2148H28.3506L29.3833 15.4023H34.4119L35.4447 18.2148L30.1966 13.1849L31.8979 8.5517L33.5981 13.1849H30.1966L35.4447 18.2143ZM45.6031 8.15507L42.9159 15.4745L40.23 8.15507H37.4865L41.1801 18.2143H44.6523L48.3454 8.15507H45.6026M49.4937 8.15507H52.2373V18.2143H49.4937V8.15507Z" fill="white"/>
<path d="M50.8749 7.01287C51.8504 7.01287 52.6413 6.22152 52.6413 5.24533C52.6413 4.26914 51.8504 3.47778 50.8749 3.47778C49.8993 3.47778 49.1085 4.26914 49.1085 5.24533C49.1085 6.22152 49.8993 7.01287 50.8749 7.01287Z" fill="white"/>
<path d="M61.9241 10.3721V8.15529H58.6376V5.38037H55.8958V8.15529H53.726V10.3721H55.8958V14.7C55.8958 16.9323 57.0113 18.4223 59.8596 18.4223C60.9595 18.4223 61.9241 18.0182 61.9241 18.0182L61.5909 15.8462C61.5909 15.8462 61.0509 16.0077 60.387 16.0077C59.5732 16.0077 58.6376 15.6567 58.6376 14.531V10.3719H61.9241M68.2155 15.9152C66.6859 15.9152 65.4464 14.7017 65.4464 13.205C65.4464 11.7094 66.6859 10.4957 68.215 10.4957C69.7451 10.4957 70.9841 11.7097 70.9841 13.2052C70.9841 14.702 69.7451 15.9154 68.2155 15.9154M68.2155 7.89856C65.2419 7.89856 62.8304 10.259 62.8304 13.1686C62.8304 16.0794 65.2419 18.4386 68.2152 18.4386C71.1873 18.4386 73.5989 16.0794 73.5989 13.1686C73.5989 10.259 71.1873 7.89856 68.215 7.89856" fill="white"/>
</svg>
