<svg width="100" height="100" viewBox="0 0 100 100" fill="none" xmlns="http://www.w3.org/2000/svg">
<path d="M49.6345 99.2689C77.0468 99.2689 99.2689 77.0468 99.2689 49.6345C99.2689 22.2221 77.0468 0 49.6345 0C22.2221 0 0 22.2221 0 49.6345C0 77.0468 22.2221 99.2689 49.6345 99.2689Z" fill="#FF6801"/>
<path d="M26.9011 57.97H23.6174L14.7767 72.6204H18.4393L20.3337 69.5893H30.69L32.5845 72.6204H35.9945L26.9011 57.97ZM21.723 66.8108L25.2593 61.0011L28.7956 66.8108H21.723Z" fill="white"/>
<path d="M42.4355 61.5063L38.1415 69.2104L33.8474 61.5063H30.3884L37.1414 72.4941H39.5307L45.5929 61.5063H42.4355Z" fill="white"/>
<path d="M42.9407 61.5063V64.1585H47.8663V72.4941H50.8974V64.1585H55.823V61.5063H42.9407Z" fill="white"/>
<path d="M69.9682 65.5478C69.9682 65.0426 69.8419 64.5374 69.8419 64.1585C69.7156 63.6533 69.5893 63.2745 69.3367 62.8956C69.0841 62.5167 68.7052 62.1378 68.2 62.0115C67.8211 61.7589 67.3159 61.6326 66.6845 61.5063C66.053 61.38 65.4215 61.38 64.6637 61.38H60.8748C60.117 61.38 59.3593 61.38 58.8541 61.5063C58.2226 61.6326 57.7174 61.7589 57.3385 62.0115C56.8333 62.2641 56.4544 62.5167 56.2019 62.8956C55.9493 63.2745 55.823 63.6533 55.6967 64.1585C55.5704 64.5374 55.5704 65.0426 55.5704 65.5478C55.5704 66.053 55.5704 66.5582 55.5704 67.0633C55.5704 67.5685 55.5704 68.0737 55.5704 68.5789C55.5704 69.0841 55.6967 69.5893 55.6967 69.9682C55.823 70.4733 55.9493 70.8522 56.2019 71.2311C56.4544 71.61 56.8333 71.8626 57.3385 72.1152C57.7174 72.3678 58.2226 72.4941 58.8541 72.6204C59.4856 72.7467 60.117 72.7467 60.8748 72.7467H64.6637C65.4215 72.7467 66.1793 72.7467 66.6845 72.6204C67.3159 72.4941 67.8211 72.3678 68.2 72.1152C68.7052 71.8626 69.0841 71.61 69.3367 71.2311C69.5893 70.8522 69.7156 70.4733 69.8419 69.9682C69.9682 69.5893 69.9682 69.0841 69.9682 68.5789C69.9682 68.0737 69.9682 67.5685 69.9682 67.0633C69.9682 66.4319 69.9682 65.9267 69.9682 65.5478ZM66.937 67.0633C66.937 67.6948 66.937 68.0737 66.937 68.5789C66.937 68.9578 66.937 69.2104 66.8108 69.463C66.8108 69.7156 66.6845 69.8419 66.6845 69.8419C66.6845 69.8419 66.5582 69.9682 66.4319 69.9682C66.3056 69.9682 66.053 70.0945 65.8004 70.0945C65.4215 70.0945 65.0426 70.0945 64.5374 70.0945H60.7485C60.2433 70.0945 59.7382 70.0945 59.4856 70.0945C59.1067 70.0945 58.8541 69.9682 58.8541 69.9682C58.7278 69.9682 58.7278 69.8419 58.7278 69.8419C58.7278 69.8419 58.6015 69.7156 58.6015 69.463C58.6015 69.2104 58.4752 68.9578 58.4752 68.5789C58.4752 68.2 58.4752 67.6948 58.4752 67.0633C58.4752 66.4319 58.4752 66.053 58.4752 65.5478C58.4752 65.1689 58.4752 64.9163 58.6015 64.6637C58.6015 64.4111 58.7278 64.2848 58.7278 64.2848L58.8541 64.1585C58.9804 64.1585 59.233 64.0322 59.4856 64.0322C59.8644 64.0322 60.2433 64.0322 60.7485 64.0322H64.5374C65.0426 64.0322 65.5478 64.0322 65.8004 64.0322C66.1793 64.0322 66.4319 64.1585 66.4319 64.1585C66.5582 64.1585 66.5582 64.2848 66.5582 64.2848C66.5582 64.2848 66.6845 64.4111 66.6845 64.6637C66.6845 64.9163 66.8108 65.1689 66.8108 65.5478C66.937 65.9267 66.937 66.4319 66.937 67.0633Z" fill="white"/>
<path d="M87.0181 62.3904V61.7589C87.0181 61.2537 87.0181 60.8748 86.8919 60.4959C86.7656 60.1171 86.6393 59.7382 86.3867 59.3593C86.1341 58.9804 85.8815 58.7278 85.3763 58.4752C84.9974 58.2226 84.4922 58.0963 83.987 57.97C83.4818 57.8437 82.8504 57.7174 82.0926 57.7174C81.4611 57.7174 80.577 57.5911 79.693 57.5911H77.9248C76.7881 57.5911 75.7778 57.5911 75.02 57.7174C74.1359 57.8437 73.5044 57.97 72.873 58.0963C72.2415 58.2226 71.7363 58.4752 71.2311 58.7278C70.8522 58.9804 70.4733 59.3593 70.2207 59.6119C69.9681 59.9908 69.7155 60.3696 69.7155 60.7485C69.5892 61.1274 69.5892 61.5063 69.5892 62.0115C69.5892 62.3904 69.5892 62.7693 69.7155 63.1482C69.7155 63.5271 69.9681 63.9059 70.0944 64.2848C70.347 64.6637 70.5996 64.9163 70.9785 65.1689C71.3574 65.4215 71.8626 65.6741 72.4941 65.8004C72.9993 65.9267 73.757 66.053 74.5148 66.1793C75.2726 66.3056 76.283 66.3056 77.4196 66.3056H79.8193C80.8296 66.3056 81.5874 66.3056 82.0926 66.4319C82.7241 66.5582 83.103 66.6845 83.2293 66.6845C83.4818 66.8108 83.6081 66.9371 83.6081 67.0634C83.7344 67.3159 83.7344 67.6948 83.7344 68.0737C83.7344 68.4526 83.7344 68.7052 83.6081 68.9578C83.4818 69.2104 83.3555 69.3367 82.9767 69.463C82.5978 69.5893 82.2189 69.7156 81.5874 69.8419C80.9559 69.9682 80.0718 69.9682 79.0615 69.9682H76.6618C75.7778 69.9682 75.02 69.9682 74.5148 69.9682C74.0096 69.9682 73.6307 69.8419 73.2518 69.7156C72.9992 69.5893 72.873 69.463 72.7467 69.3367C72.6204 69.2104 72.6204 68.9578 72.6204 68.3263V67.6948H69.463V68.3263C69.463 68.8315 69.4629 69.2104 69.5892 69.5893C69.7155 69.9682 69.8418 70.3471 70.0944 70.7259C70.347 71.1048 70.5996 71.3574 70.9785 71.61C71.3574 71.8626 71.8626 71.9889 72.3678 72.2415C72.873 72.3678 73.5044 72.4941 74.2622 72.4941C74.8937 72.6204 75.7778 72.6204 76.6618 72.6204H79.0615C80.0718 72.6204 80.9559 72.6204 81.7137 72.4941C82.4715 72.3678 83.2293 72.2415 83.7344 72.1152C84.3659 71.9889 84.8711 71.7363 85.25 71.4837C85.6289 71.2311 86.0078 70.8522 86.2604 70.4734C86.513 70.0945 86.6392 69.7156 86.7655 69.3367C86.8918 68.9578 86.8919 68.5789 86.8919 68.0737C86.8919 67.6948 86.8918 67.1897 86.7655 66.8108C86.7655 66.4319 86.6393 66.053 86.3867 65.6741C86.1341 65.2952 85.8815 65.0426 85.5026 64.6637C85.1237 64.4111 84.7448 64.1585 84.1133 64.0322C83.6081 63.9059 82.9767 63.7797 82.2189 63.6534C81.4611 63.5271 80.577 63.5271 79.693 63.5271H77.2933C76.5355 63.5271 75.9041 63.5271 75.2726 63.5271C74.7674 63.5271 74.2622 63.4008 73.8833 63.4008C73.5044 63.4008 73.2518 63.2745 73.1255 63.1482C72.9993 63.0219 72.873 63.0219 72.7467 62.8956C72.6204 62.7693 72.6204 62.643 72.6204 62.5167C72.6204 62.2641 72.6204 62.1378 72.6204 61.8852C72.6204 61.5063 72.6204 61.2537 72.7467 61.0011C72.873 60.8748 72.9992 60.6222 73.3781 60.4959C73.757 60.3696 74.2622 60.2433 75.02 60.1171C75.7778 59.9908 76.7881 59.9908 77.9248 59.9908H79.693C80.577 59.9908 81.3348 59.9908 81.84 59.9908C82.3452 59.9908 82.7241 60.1171 83.103 60.2434C83.3556 60.3696 83.4818 60.4959 83.6081 60.6222C83.7344 60.7485 83.7344 61.0011 83.7344 61.5063V62.1378H87.0181V62.3904Z" fill="white"/>
<path d="M79.9455 28.9219C79.9455 23.7437 75.7777 19.5759 70.5996 19.5759C65.4214 19.5759 61.2537 23.7437 61.2537 28.9219C61.2537 32.0793 62.8955 34.8578 65.2952 36.6259C65.2952 37.2574 65.1689 38.1415 64.6637 38.773C64.1585 39.2782 63.4007 39.657 62.264 39.657C60.117 39.657 56.2018 38.2678 55.3177 33.2159C54.0548 26.1433 50.0133 21.2178 45.3403 20.9652C43.067 20.8389 40.1622 21.4704 38.7729 23.7437C37.51 24.1226 35.8681 25.2593 34.3525 28.0378C33.9737 28.6693 33.7211 29.427 33.5948 30.0585L33.3422 30.3111C33.2159 30.4374 29.8059 33.4685 24.6277 37.2574C18.4392 41.8041 22.607 53.8022 22.7333 54.3074L23.1122 55.3178H40.92H43.4459H50.8974L49.6344 48.7504C52.034 49.003 54.6863 49.3819 57.0859 49.7608C59.8644 50.1396 62.7692 50.6448 65.4214 50.7711C67.9474 51.0237 70.0944 50.2659 71.8626 48.6241C75.3989 45.3404 75.904 39.1519 76.0303 36.8785C78.1774 34.9841 79.9455 32.2056 79.9455 28.9219ZM70.5996 35.363C67.0633 35.363 64.1585 32.4582 64.1585 28.9219C64.1585 25.3856 67.0633 22.4807 70.5996 22.4807C74.1359 22.4807 77.0407 25.3856 77.0407 28.9219C77.0407 32.4582 74.1359 35.363 70.5996 35.363ZM42.3092 49.003C43.067 48.4978 44.33 48.3715 46.3507 48.3715L47.1085 52.2867H43.1933H42.9407C42.8144 51.5289 42.5618 50.3922 42.3092 49.003ZM39.657 47.74L39.2781 48.2452L39.657 50.0133C39.7833 51.0237 39.9096 51.7815 40.0359 52.2867H33.7211L32.837 50.0133H30.69L29.8059 52.2867H24.754C24.3751 50.8974 22.1018 42.3093 25.8907 39.4045C29.0481 37.1311 31.4477 35.1104 33.0896 33.7211C34.2263 40.1622 41.9303 43.6985 43.6985 44.33L43.8248 44.2037V44.33L44.0774 44.4563L43.6985 41.4252V41.2989H43.5722C43.3196 41.2989 35.3629 37.8889 35.9944 31.5741V31.4478C36.1207 30.8163 36.3733 30.0585 36.7522 29.3007C37.1311 28.543 37.51 28.0378 37.8888 27.6589C38.1414 29.3007 39.1518 31.1952 40.7937 33.3422L40.92 33.5948L42.0566 30.5637V30.4374C40.4148 28.1641 40.0359 26.7748 40.7937 25.3856C41.4251 24.2489 43.067 23.6174 44.9614 23.7437C48.2451 23.87 51.2763 28.0378 52.2866 33.7211C53.5496 40.6674 58.9803 42.4356 62.0114 42.4356C64.0322 42.4356 65.5477 41.8041 66.5581 40.5411C67.3159 39.657 67.5685 38.6467 67.8211 37.7626C68.7052 38.0152 69.4629 38.1415 70.4733 38.1415C71.2311 38.1415 71.9889 38.0152 72.6203 37.8889C72.3677 40.2885 71.7363 44.2037 69.4629 46.3508C68.3263 47.3611 66.937 47.8663 65.2952 47.74C62.7692 47.4874 59.8644 47.1085 57.0859 46.7296C49.0029 45.4667 41.9303 44.4563 39.657 47.74Z" fill="white"/>
<path d="M45.214 32.837H44.9614L45.0877 35.4893H45.214C45.9718 35.4893 46.2244 35.7419 46.477 36.3733V36.4996H49.1292L49.2555 36.247C48.3714 33.5948 45.9718 32.9633 45.214 32.837Z" fill="white"/>
</svg>
