<svg width="90" height="74" viewBox="0 0 90 74" fill="none" xmlns="http://www.w3.org/2000/svg">
<path d="M53.6251 55.1875C53.6251 65.2649 61.8013 73.2501 71.6877 73.2501C81.574 73.2501 89.7502 65.2649 89.7502 55.1875C89.7502 45.1102 81.574 37.125 71.6877 37.125C61.6121 37.125 53.6251 45.1119 53.6251 55.1875ZM57.8751 55.375C57.8751 47.8256 64.1382 41.5625 71.6877 41.5625C79.2371 41.5625 85.5002 47.8256 85.5002 55.375C85.5002 62.9245 79.2371 69.1876 71.6877 69.1876C64.1382 69.1876 57.8751 62.9245 57.8751 55.375Z" fill="#F4A040" stroke="#F4A040" stroke-width="0.5"/>
<path d="M64.0002 53.0625H63.7502V53.3125V57.0625V57.3125H64.0002H79.9377H80.1877V57.0625V53.3125V53.0625H79.9377H64.0002Z" fill="#F4A040" stroke="#F4A040" stroke-width="0.5"/>
<path d="M70.1876 47.0625H69.9376V47.3125V63.25V63.5H70.1876H73.9376H74.1876V63.25V47.3125V47.0625H73.9376H70.1876Z" fill="#F4A040" stroke="#F4A040" stroke-width="0.5"/>
<path d="M48.6251 61.0626H48.8751V60.8126V57.0626V56.8126H48.6251H5.00001V5.00001H72.0002V32.6876V32.9376H72.2502H76.0002H76.2502V32.6876V3.43751C76.2502 1.98693 75.0133 0.75 73.5627 0.75H3.43751C1.98693 0.75 0.75 1.98693 0.75 3.43751V58.3751C0.75 59.8257 1.98693 61.0626 3.43751 61.0626H48.6251Z" fill="#F4A040" stroke="#F4A040" stroke-width="0.5"/>
<path d="M38.9236 31.9579L39.0619 32.0504L39.2006 31.9585L68.0757 12.8334L68.2819 12.6969L68.1475 12.4892L66.085 9.30169L65.9476 9.08925L65.7368 9.22927L39.0633 26.9494L11.2643 8.29242L11.0532 8.15074L10.9151 8.36419L8.85261 11.5517L8.71884 11.7584L8.92353 11.8953L38.9236 31.9579Z" fill="#F4A040" stroke="#F4A040" stroke-width="0.5"/>
</svg>
