<svg width="175" height="33" viewBox="0 0 175 33" fill="none" xmlns="http://www.w3.org/2000/svg">
<path d="M4.69847 24.0958L4.77076 23.7324H5.13218H15.5411H15.9387L16.0109 24.0958C16.3001 25.5859 16.5892 26.967 16.8422 28.3117C17.0952 29.5837 17.3121 30.8921 17.5289 32.2004H20.8178C20.1311 28.9659 19.4806 25.913 18.7939 23.0782C18.071 20.098 17.3843 17.2269 16.6615 14.5738C15.9387 11.9207 15.2158 9.34031 14.493 6.90529C13.7701 4.57929 13.0473 2.2533 12.3606 0H8.52953C7.80669 2.2533 7.08385 4.57929 6.36101 6.90529C5.60202 9.34031 4.87918 11.9207 4.15634 14.5738C3.4335 17.2269 2.71066 20.098 1.98781 23.0782C1.33726 25.8766 0.650558 28.9295 0 32.1641H3.1805C3.39736 30.8921 3.61421 29.62 3.8672 28.3117C4.1202 26.9306 4.40934 25.5132 4.69847 24.0958ZM5.56588 20.4978C6.21644 17.6993 6.93928 14.9372 7.66212 12.2841C8.38496 9.6674 9.14395 6.97797 9.90293 4.28855L10.3728 2.72577L10.8065 4.28855C11.5655 6.94163 12.3245 9.63106 13.0473 12.2841C13.7701 14.9736 14.4568 17.7357 15.1074 20.5341L15.252 21.1156H14.6737H6.03573H5.42131L5.56588 20.4978Z" fill="white"/>
<path d="M33.6121 10.6123C32.9616 10.1762 32.1665 9.84912 31.299 9.6674C30.4316 9.48568 29.4558 9.37665 28.4077 9.37665C27.6487 9.37665 26.8897 9.41299 26.0946 9.52202C25.3356 9.63105 24.5766 9.74008 23.8538 9.9218V32.1641C24.7212 32.3458 25.5525 32.4548 26.3476 32.5275C27.1788 32.6002 28.0101 32.6729 28.7691 32.6729C29.9256 32.6729 31.0099 32.5639 31.9857 32.3095C32.9616 32.0914 33.7928 31.6916 34.4795 31.1828C35.1662 30.674 35.7084 30.0198 36.0698 29.2203C36.4312 28.4207 36.6481 27.4031 36.6481 26.2401C36.6481 24.6773 36.2867 23.4416 35.6 22.5694C35.0217 21.8425 34.2988 21.261 33.4314 20.8249L32.6724 20.4614L33.3953 20.0253C34.0458 19.6255 34.588 19.0804 35.0217 18.4262C35.5638 17.5903 35.8529 16.4637 35.8529 15.1189C35.8529 14.0286 35.6361 13.12 35.2385 12.3932C34.8048 11.63 34.2627 11.0485 33.6121 10.6123ZM32.6363 22.7874C33.3953 23.587 33.7928 24.7137 33.7928 26.1311C33.7928 26.967 33.6844 27.6575 33.4314 28.2026C33.1784 28.7841 32.8532 29.2203 32.4194 29.5474C31.9857 29.8744 31.4798 30.0925 30.9015 30.2379C30.3594 30.3833 29.7088 30.4559 29.0582 30.4559C28.6607 30.4559 28.2993 30.4196 27.8655 30.3833C27.5403 30.3469 27.215 30.3106 26.8897 30.2742L26.4921 30.2015V29.8018V22.0606V21.5881H26.962H29.0582C30.6846 21.5881 31.8773 21.9879 32.6363 22.7874ZM28.733 19.4802H26.9981H26.5283V19.0077V12.1388V11.7026L26.962 11.6663C27.215 11.63 27.468 11.63 27.721 11.5936C28.0463 11.5573 28.3354 11.5573 28.6245 11.5573C29.2751 11.5573 29.8534 11.63 30.3594 11.739C30.8653 11.848 31.3352 12.0661 31.7328 12.3568C32.1303 12.6476 32.4556 13.0474 32.7086 13.5925C32.9616 14.1013 33.07 14.7918 33.07 15.5914C32.9977 18.1718 31.5882 19.4802 28.733 19.4802Z" fill="white"/>
<path d="M49.7315 11.8843V9.63104H36.7926V11.8843H41.455H41.9248V12.3568V32.4912H44.6355V12.3568V11.8843H45.1053H49.7315Z" fill="white"/>
<path d="M64.3329 12.3568C63.6824 11.3392 62.8149 10.5033 61.8391 9.92181C60.8271 9.34031 59.6344 9.04956 58.261 9.04956C56.8876 9.04956 55.695 9.34031 54.683 9.92181C53.671 10.5033 52.8397 11.3029 52.1892 12.3568C51.5386 13.4108 51.0326 14.6828 50.7073 16.1366C50.3821 17.6267 50.2014 19.2621 50.2014 21.043C50.2014 22.8238 50.3821 24.4956 50.7073 25.9493C51.0326 27.4031 51.5386 28.6751 52.1892 29.7291C52.8397 30.7467 53.7071 31.5826 54.683 32.1278C55.695 32.7093 56.8876 32.9637 58.261 32.9637C59.6344 32.9637 60.8271 32.6729 61.8391 32.1278C62.8511 31.5463 63.6824 30.7467 64.3329 29.7291C64.9835 28.6751 65.4895 27.4394 65.8147 25.9493C66.14 24.4956 66.2846 22.8238 66.2846 21.043C66.2846 19.2621 66.14 17.5903 65.8147 16.1366C65.4895 14.6828 64.9835 13.4108 64.3329 12.3568ZM63.1402 24.9317C62.9595 26.0947 62.6704 27.1123 62.2728 27.9482C61.8753 28.7841 61.3331 29.4747 60.6826 29.9471C60.032 30.4196 59.2369 30.674 58.2972 30.674C57.3575 30.674 56.5624 30.4196 55.9118 29.9471C55.2612 29.4747 54.7191 28.8205 54.3216 27.9482C53.924 27.1123 53.5987 26.0947 53.418 24.9317C53.2373 23.7687 53.1289 22.4604 53.1289 21.043C53.1289 19.6256 53.2373 18.3172 53.418 17.1542C53.5987 15.9912 53.924 14.9736 54.3216 14.1013C54.7191 13.2291 55.2612 12.5749 55.9118 12.1024C56.5624 11.63 57.3936 11.3756 58.2972 11.3756C59.2369 11.3756 60.032 11.63 60.6826 12.1024C61.3331 12.5749 61.8753 13.2654 62.2728 14.1013C62.6704 14.9372 62.9595 15.9548 63.1402 17.1542C63.3209 18.3172 63.3932 19.6256 63.3932 21.043C63.3932 22.4604 63.3209 23.7687 63.1402 24.9317Z" fill="white"/>
<path d="M84 2.79661V0H66V2.79661H72.8813H73.5332V3.28136V33H76.3581V3.28136V2.79661H77.1549H84Z" fill="white"/>
<path d="M96.138 20.098C96.4994 19.1894 96.6801 18.0264 96.6801 16.7181C96.6801 15.4097 96.4994 14.3194 96.138 13.4108C95.7765 12.5022 95.2705 11.739 94.62 11.1938C93.9694 10.6123 93.1743 10.1762 92.2346 9.92181C91.2949 9.63106 90.2829 9.52203 89.1264 9.52203C87.6807 9.52203 86.1989 9.70375 84.717 10.0672V32.6366H87.3916V24.4593V23.9868H87.8614H88.9457C90.1022 23.9868 91.1865 23.8414 92.1262 23.587C93.0659 23.3326 93.8971 22.8965 94.5477 22.315C95.2705 21.7698 95.7765 21.0066 96.138 20.098ZM93.4996 19.0077C93.2827 19.6256 92.9213 20.1344 92.4876 20.5341C92.0539 20.9339 91.5118 21.2247 90.8612 21.3701C90.2468 21.5518 89.524 21.6245 88.765 21.6245H87.8976H87.4638V21.152V12.3568V11.9207L87.8976 11.8844C88.2951 11.848 88.765 11.8117 89.2348 11.8117C89.9215 11.8117 90.5359 11.8844 91.1142 12.0661C91.6925 12.2115 92.1985 12.5022 92.596 12.902C92.9936 13.2654 93.3189 13.8106 93.5357 14.4284C93.7526 15.0463 93.861 15.8458 93.861 16.7544C93.861 17.6267 93.7526 18.3899 93.4996 19.0077Z" fill="white"/>
<path d="M102.246 22.1696V21.6971H102.716H108.896V19.4802H102.716H102.246V19.0077V12.4658V11.9934H102.716H109.583V9.70374H99.5353V32.6002H110.125V30.3106H102.716H102.246V29.8381V22.1696Z" fill="white"/>
<path d="M119.45 23.8051C120.172 22.2786 120.968 20.7158 121.727 19.1894C122.305 18.0628 122.883 16.9725 123.425 15.9912L124.293 14.3921V16.2092V32.6002H126.786V9.70374H124.654C122.883 12.6839 121.293 15.5187 119.919 18.1718C118.799 20.3888 117.715 22.6057 116.739 24.859L115.835 26.8943V24.6773V9.70374H113.342V32.5639H115.51C116.052 31.2555 116.631 29.8744 117.281 28.3843C118.004 26.8943 118.727 25.3315 119.45 23.8051Z" fill="white"/>
<path d="M117.679 6.28747C118.401 6.86896 119.269 7.19606 120.317 7.19606C121.329 7.19606 122.233 6.90531 122.955 6.28747C123.642 5.70597 124.112 4.76103 124.329 3.41632L122.522 3.01654C122.377 3.8161 122.16 4.3976 121.799 4.76103C121.437 5.16081 120.931 5.37888 120.281 5.37888C119.63 5.37888 119.124 5.16081 118.763 4.76103C118.438 4.3976 118.185 3.8161 118.04 3.01654L116.233 3.41632C116.486 4.76103 116.956 5.74231 117.679 6.28747Z" fill="white"/>
<path d="M142.002 32.6002H144.677V9.70374H134.232V13.5925C134.232 14.6465 134.232 15.7731 134.196 16.9361C134.159 18.0991 134.123 19.2258 134.051 20.3524C133.979 21.4791 133.834 22.6057 133.653 23.6597C133.473 24.7136 133.22 25.7676 132.931 26.6762C132.497 28.0209 131.919 29.0022 131.232 29.5473C130.581 30.0562 129.786 30.4196 128.883 30.6013L129.136 32.891C130.726 32.8546 132.027 32.3821 133.075 31.4736C134.159 30.5286 134.955 29.1112 135.461 27.2577C135.75 26.2401 136.003 25.1498 136.183 24.0231C136.364 22.8965 136.509 21.7335 136.617 20.5705C136.726 19.4075 136.798 18.2081 136.834 17.0451C136.87 15.8821 136.87 14.7192 136.87 13.5562V12.3568V11.8844H137.34H141.532H142.002V12.3568V32.6002Z" fill="white"/>
<path d="M151.941 22.1696V21.6971H152.411H158.591V19.4802H152.411H151.941V19.0077V12.4658V11.9934H152.411H159.278V9.70374H149.231V32.6002H159.82V30.3106H152.411H151.941V29.8381V22.1696Z" fill="white"/>
<path d="M167.302 23.9868C168.458 23.9868 169.543 23.8414 170.482 23.587C171.422 23.3326 172.253 22.8965 172.904 22.315C173.554 21.7335 174.096 20.9702 174.458 20.0616C174.819 19.1531 175 17.9901 175 16.6817C175 15.3733 174.819 14.283 174.458 13.3744C174.096 12.4658 173.59 11.7026 172.94 11.1575C172.289 10.576 171.494 10.1398 170.555 9.88544C169.615 9.59469 168.603 9.48566 167.446 9.48566C166.001 9.48566 164.519 9.66737 163.037 10.0308V32.6002H165.711V24.4592V23.9868H166.181H167.302ZM165.748 21.1883V12.3568V11.9207L166.181 11.8843C166.579 11.848 167.049 11.8116 167.519 11.8116C168.205 11.8116 168.82 11.8843 169.398 12.0661C169.976 12.2114 170.482 12.5022 170.88 12.902C171.277 13.2654 171.603 13.8105 171.819 14.4284C172.036 15.0462 172.145 15.8458 172.145 16.7544C172.145 17.663 172.036 18.4262 171.819 19.044C171.603 19.6619 171.241 20.1707 170.808 20.5705C170.374 20.9702 169.832 21.261 169.181 21.4064C168.567 21.5881 167.844 21.6608 167.085 21.6608H166.217H165.748V21.1883Z" fill="white"/>
</svg>
