<svg width="111" height="43" viewBox="0 0 111 43" fill="none" xmlns="http://www.w3.org/2000/svg">
<path d="M31.4215 24.0362L35.8321 21.9506L36.516 10.1889L37.1314 21.9506L110.403 19.1811C110.471 19.1811 110.471 19.2837 110.403 19.2837L94.8799 21.0616L38.1913 23.1815L35.4902 24.3098C35.4902 24.3098 33.5755 25.0278 32.5156 24.5491C31.4215 24.0362 31.4215 24.0362 31.4215 24.0362Z" fill="white"/>
<path d="M18.2238 9.09489C18.2238 9.09489 21.4377 7.96659 24.6175 8.2743C27.7973 8.58202 27.8998 10.0522 28.3785 12.2405C28.8572 14.4287 31.0454 23.8996 31.0454 23.8996H28.5153C28.5153 23.8996 26.2587 12.343 26.0193 11.3173C25.7458 10.189 25.2671 9.4368 24.0363 9.33422C22.6002 9.16327 18.2238 9.09489 18.2238 9.09489Z" fill="white"/>
<path d="M19.3521 9.88123L18.2238 22.3267H16.2749C16.2749 22.3267 16.2407 21.9506 16.4459 21.8481C16.6168 21.7455 17.7109 21.7797 17.7109 21.7797C17.9503 18.9418 18.3264 15.9672 18.8392 12.89C19.0102 11.8643 19.1811 10.8728 19.3521 9.88123Z" fill="white"/>
<path d="M9.4367 20.4804L15.3175 21.4035C15.3175 21.4035 15.4201 21.4719 15.4201 21.5745C15.4201 21.6429 15.3859 21.7454 15.3175 21.7796C12.9242 21.7112 10.565 21.6087 8.17163 21.5403V1.16248L27.0792 3.45327L36.9946 6.56465V8.13743L26.0535 4.58157L9.47089 2.56431L9.4367 20.4804Z" fill="white"/>
<path d="M76.8613 0L100.692 2.11984L110.608 5.23122V6.49628L99.7009 3.24814L76.8613 1.16249V0Z" fill="white"/>
<path d="M36.9604 6.5647L110.608 5.26544V6.49632L37.8152 8.13748L37.5417 17.711C37.5417 17.7451 37.5075 17.7451 37.5075 17.711L36.9604 8.13748V6.5647Z" fill="white"/>
<path d="M76.8613 0.0341797V1.23086L27.0451 2.56431L15.1808 1.0941C15.1466 1.0941 15.1466 1.02572 15.1808 1.02572L76.8613 0.0341797Z" fill="white"/>
<path d="M29.4042 3.31653H38.5674L45.9869 5.91504H36.9604L29.4042 3.31653Z" fill="white"/>
<path d="M88.1101 2.76947L99.3931 3.82939L103.462 4.99188H94.6748L88.1101 2.76947Z" fill="white"/>
<path d="M76.8613 0L76.0065 0.034191V1.60698L76.4168 4.9235C76.4168 4.95769 76.451 4.95769 76.4852 4.9235L76.8955 1.57278V0H76.8613Z" fill="white"/>
<path d="M38.6016 23.5234L34.5329 25.2671C33.6439 25.6432 32.6524 25.5748 31.8318 25.0962L31.7292 25.0278C31.5925 24.9594 31.4557 25.062 31.4557 25.2329L32.1395 33.3362C32.2079 34.0884 32.8917 34.6696 33.6439 34.6012L48.1409 33.7465C49.3034 33.6781 50.1581 32.6524 50.0214 31.4899L49.064 23.8995L48.8589 30.6351C48.8247 31.3531 48.2776 31.9344 47.5938 31.9685L35.9005 32.8233C35.2167 32.8917 34.5671 32.3788 34.4987 31.695L33.9858 27.0792C33.9174 26.6689 34.1226 26.2587 34.4645 26.0535L38.6016 23.5234Z" fill="white"/>
<path d="M102.846 21.7796L107.086 23.0447C108.009 23.3182 109.001 23.1131 109.753 22.5318L109.856 22.4634C109.992 22.3608 110.163 22.4634 110.163 22.6002L110.471 30.7034C110.505 31.4556 109.89 32.1053 109.138 32.1395L94.6406 33.0626C94.3671 33.0968 94.0593 33.0284 93.82 32.96C92.8285 32.5839 92.384 31.4556 92.7259 30.4641L95.2218 23.4891L93.9568 29.6435C93.7516 30.4299 94.4354 31.2505 94.9825 31.2505L106.676 30.7034C107.36 30.7034 107.941 30.1222 107.907 29.4042L107.838 24.7542C107.838 24.3439 107.633 23.9678 107.257 23.7969L102.846 21.7796Z" fill="white"/>
<path d="M105.479 20.3778L107.086 21.0617C108.898 21.6087 109.24 20.0701 109.24 20.0701L110.403 19.9333L109.89 21.3352C109.856 21.4719 109.753 21.8822 109.445 22.1216C109.138 22.4293 108.249 22.7712 106.984 22.4293C105.206 21.9848 102.06 20.8565 102.06 20.8565L105.479 20.3778Z" fill="white"/>
<path d="M27.6947 25.8826C27.7631 26.7715 27.7631 27.6605 27.6947 28.5495C27.6605 29.4384 27.5579 30.3274 27.387 31.1822C27.216 32.0711 26.9767 32.9259 26.5664 33.7465C26.3612 34.1568 26.1219 34.5671 25.7458 34.909C25.4039 35.2509 24.9252 35.5586 24.344 35.5928C23.7969 35.627 23.2499 35.4218 22.8396 35.1141C22.4293 34.8064 22.1216 34.4303 21.8138 34.0542C21.2668 33.302 20.8565 32.4472 20.5488 31.5924C19.9333 29.8829 19.6256 28.0708 19.523 26.2928C19.4205 24.4807 19.523 22.6686 19.9675 20.8907C20.1727 20.0017 20.4804 19.1127 20.9591 18.2922C21.1984 17.8819 21.4719 17.4716 21.848 17.1297C22.2241 16.7878 22.737 16.5142 23.284 16.48C23.8653 16.48 24.3782 16.7194 24.7543 17.0271C25.1304 17.3348 25.4381 17.7109 25.6774 18.087C26.1903 18.8734 26.498 19.694 26.7715 20.5488C27.0451 21.4035 27.216 22.2583 27.387 23.1473C27.5579 24.1046 27.6263 24.9936 27.6947 25.8826ZM27.3186 25.9167C27.216 24.173 26.9083 22.4293 26.327 20.8223C26.0193 20.0017 25.6432 19.2153 25.1645 18.5657C24.9252 18.2238 24.6517 17.9161 24.344 17.7109C24.0362 17.4716 23.6943 17.369 23.3524 17.4032C22.7028 17.4716 22.1557 18.1212 21.8138 18.8392C21.4377 19.5572 21.2326 20.3778 21.0616 21.1984C20.8907 22.019 20.8223 22.8738 20.7539 23.7285C20.7197 24.5833 20.7197 25.4381 20.7539 26.2928C20.7881 27.1476 20.8907 28.0024 21.0274 28.823C21.1642 29.6778 21.3352 30.4983 21.6087 31.3189C21.848 32.1053 22.1557 32.9259 22.6002 33.6097C23.0105 34.2935 23.626 34.8748 24.2756 34.8748C24.5833 34.8748 24.9252 34.7038 25.1987 34.4645C25.4723 34.2252 25.7116 33.8832 25.9509 33.5071C26.3612 32.7891 26.6348 31.9685 26.8399 31.1138C27.2844 29.4042 27.387 27.6263 27.3186 25.9167Z" fill="white"/>
<path d="M24.4807 18.9076C24.4807 18.9076 23.1131 22.6344 23.5234 26.7373C23.9679 30.8402 25.2329 32.8233 25.2329 32.8233C25.2329 32.8233 24.9936 33.6781 24.173 33.7123C23.3524 33.7465 21.1984 30.1222 21.4719 25.1303C21.7455 20.1385 22.566 18.6682 23.3182 18.3263C24.1388 18.0528 24.4807 18.9076 24.4807 18.9076Z" fill="white"/>
<path d="M92.384 24.6175C92.384 24.6175 91.6318 28.7204 90.23 30.43C89.5803 31.2164 88.6572 31.695 87.734 31.7292C86.8109 31.7292 85.9561 31.2847 85.2723 30.5325C84.5885 29.8145 84.0414 28.9256 83.6311 28.0024C83.3918 27.4554 83.1866 26.9083 83.0157 26.3612L81.3061 26.0877C81.5455 26.9767 81.8874 27.8315 82.2977 28.652C82.8105 29.6778 83.4943 30.6693 84.3833 31.4899C85.2381 32.3105 86.5031 32.8917 87.8024 32.8233C89.1017 32.6866 90.1958 31.9344 90.8796 31.0112C92.4182 28.9939 93.3071 23.5576 93.3071 23.4892L92.384 24.6175Z" fill="white"/>
<path d="M89.5803 22.0532L91.9737 21.9848C91.9053 22.4977 91.8369 22.7028 91.7002 23.2499C90.5035 28.8914 89.3068 30.4642 88.3494 30.7035C87.4263 30.9428 87.187 29.8829 87.187 29.8829C87.187 29.8829 89.3068 26.7373 89.5803 22.0532Z" fill="white"/>
<path d="M110.608 35.9005V37.8836L15.4543 42.9439L29.7119 39.4222L110.608 35.9005Z" fill="#F4A040"/>
<path d="M0 30.7719L1.77793 29.8145L13.5396 29.541L6.76981 30.3958L29.712 39.4222L25.5748 40.4479L3.31652 30.8745L0 30.7719Z" fill="#F4A040"/>
<path d="M41.0976 8.68458L43.6961 8.65039L38.3965 14.9073L38.4649 11.8643L41.0976 8.68458Z" fill="#F4A040"/>
<path d="M38.3623 18.087L46.363 8.58193L48.9273 8.51355L38.3281 21.13L38.3623 18.087Z" fill="#F4A040"/>
<path d="M51.6968 8.4452L54.2611 8.41101L43.7645 20.9249L41.166 20.9933L51.6968 8.4452Z" fill="#F4A040"/>
<path d="M56.9964 8.34261L59.5607 8.27423L49.0982 20.7539L46.4997 20.8223L56.9964 8.34261Z" fill="#F4A040"/>
<path d="M62.3302 8.20588L64.8945 8.17169L54.5004 20.5488L51.9019 20.6514L62.3302 8.20588Z" fill="#F4A040"/>
<path d="M67.4588 8.10329L70.0231 8.03491L59.6632 20.412L57.0647 20.4804L67.4588 8.10329Z" fill="#F4A040"/>
<path d="M72.4507 8.00069L74.9808 7.93231L64.9286 20.2411L62.3643 20.3094L72.4507 8.00069Z" fill="#F4A040"/>
<path d="M79.7675 19.7624L77.34 19.8308L73.7499 15.4543L69.9547 20.0701L67.3904 20.1385L72.4849 13.9157L73.7499 12.4113L74.9808 13.9157L79.7675 19.7624Z" fill="#F4A040"/>
<path d="M74.7415 19.9333L72.6558 20.0017L73.7499 18.6683L74.7415 19.9333Z" fill="#F4A040"/>
<path d="M74.9466 8.03487L72.4165 7.96649L82.0242 19.694L84.4517 19.6256L74.9466 8.03487Z" fill="#F4A040"/>
<path d="M79.8017 7.82977L77.3742 7.89816L86.8793 19.5231L89.3068 19.4547L79.8017 7.82977Z" fill="#F4A040"/>
<path d="M94.4697 19.2837L92.0421 19.3521L82.5712 7.76136L85.0329 7.72717L94.4697 19.2837Z" fill="#F4A040"/>
<path d="M99.2564 19.1469L96.8288 19.2153L87.3921 7.65877L89.8197 7.59039L99.2564 19.1469Z" fill="#F4A040"/>
<path d="M104.18 18.976L101.752 19.0443L92.3498 7.55618L94.7774 7.48779L104.18 18.976Z" fill="#F4A040"/>
<path d="M109.069 18.805L106.642 18.9076L97.2733 7.45364L99.7009 7.38525L109.069 18.805Z" fill="#F4A040"/>
<path d="M110.574 14.4969V17.5399L102.231 7.31684L104.659 7.28265L110.574 14.4969Z" fill="#F4A040"/>
<path d="M110.574 8.82122V11.8642L106.744 7.18005L109.274 7.24844L110.574 8.82122Z" fill="#F4A040"/>
</svg>
