<svg width="145" height="44" viewBox="0 0 145 44" fill="none" xmlns="http://www.w3.org/2000/svg">
<path d="M144.86 22.1479V20.549C145 17.5288 144.965 14.4375 144.93 11.3818C144.93 8.43264 144.86 5.44797 144.755 2.49883L144.651 0.935425H97.9371H96.4347L96.3649 2.46329C96.2251 5.3769 96.1552 8.29051 96.1552 11.2041C96.1552 14.2599 96.1203 17.4577 96.2601 20.5135L96.295 22.0058C96.2251 23.3205 96.1552 24.6352 96.1552 25.9143C96.1552 26.3052 96.1552 26.696 96.1552 27.0513C95.3866 27.0513 95.3866 27.0513 95.0721 27.5132L94.2685 28.8279L85.7085 28.6503C85.6735 28.6503 85.6386 28.6503 85.6036 28.6503C85.429 27.762 85.0097 26.8737 84.1362 26.2696C84.0314 26.0209 84.0663 25.2392 84.0663 24.9905C84.0663 24.8839 84.0663 24.8128 84.0663 24.7062C84.0663 24.3864 84.1013 23.9245 84.1362 23.4981C84.276 21.0109 84.4157 18.8435 83.123 17.8841C82.4941 17.4222 81.411 16.2496 80.7471 15.539L80.4676 15.2548C79.3146 14.0111 78.1966 12.7675 76.8339 11.1686C75.5761 9.71179 73.8991 8.96562 71.8027 8.93009H71.7328C67.4353 8.64583 58.6307 8.25498 52.0272 8.25498C50.4899 8.25498 49.1622 8.29051 48.0791 8.32604C43.6069 8.5037 40.7769 9.07221 37.1432 10.0671C32.9156 11.2397 28.0591 13.7979 27.1506 14.2954C25.6133 15.1126 22.1194 17.1024 20.5472 17.9907C20.2327 17.813 19.9183 17.742 19.5689 17.742C19.4641 17.742 19.3592 17.742 19.2544 17.7775C18.3809 17.9196 15.2015 18.4171 11.7775 19.2698C8.52814 20.0871 4.51015 21.5439 2.97284 23.2139C2.309 23.96 2.06442 24.7773 1.85479 25.3813C1.78491 25.5945 1.74997 25.7722 1.68009 25.9143C1.54034 26.2341 1.40058 26.4473 1.19095 26.7315C0.736739 27.3711 0.177714 28.1528 0.0379577 29.9649C-0.206615 32.9851 0.736738 35.4368 2.69332 36.8936C4.54509 38.2438 6.92095 38.4926 7.8643 38.4926H7.93418C8.00406 38.4926 8.10887 38.4926 8.17875 38.457C9.40162 41.6904 12.5461 44 16.1798 44C19.8134 44 22.923 41.6904 24.1808 38.4926C24.2507 38.4926 24.3206 38.5281 24.3905 38.5281C27.7097 38.4926 38.7853 38.4215 42.9081 38.3149C47.4153 38.2083 60.9018 37.5687 61.0066 37.5687C61.1813 37.5687 61.321 37.5332 61.4957 37.4977C62.6836 40.8021 65.8631 43.1828 69.5666 43.1828C73.2352 43.1828 76.3797 40.8377 77.6026 37.5687C77.6725 37.5687 77.7424 37.6043 77.8472 37.6043C78.0219 37.6043 78.1966 37.5687 78.3713 37.5332C79.1399 37.32 80.7122 36.8581 82.4941 36.2896C84.8699 35.5079 85.4988 34.2287 85.6735 32.843C87.4554 33.4115 91.4734 34.5841 93.7095 34.6551C94.024 34.6551 94.3733 34.6551 94.7926 34.6551C97.8323 34.6551 103.388 34.3709 104.017 34.3353C104.96 34.2998 105.065 34.0156 105.344 33.5536L106.078 32.4166C106.148 32.31 106.183 32.239 106.218 32.1679C108.349 32.1679 110.48 32.1679 112.612 32.1679C112.507 32.5943 112.472 32.9141 112.472 33.0562C112.437 33.5536 112.192 34.8683 112.437 35.117C112.612 35.2947 113.485 35.3302 114.009 35.3302C114.009 35.3658 114.009 35.4013 114.009 35.4724C114.009 39.6296 117.573 43.1472 121.8 43.1472C125.993 43.1472 129.557 39.6296 129.557 35.4724C129.557 35.4368 129.557 35.4013 129.557 35.3302H129.906C130.395 35.3302 131.164 35.3302 131.514 35.1526C131.793 34.9749 131.618 33.8734 131.548 33.376C131.514 33.1983 131.444 32.7719 131.269 32.2034C133.051 32.239 134.868 32.2745 136.65 32.2745H137.209C139.235 32.2745 141.296 32.239 143.288 32.2034C144.755 32.1679 144.825 32.2745 144.895 30.64C144.965 29.0766 145 27.4777 145 25.9143C144.93 24.5996 144.895 23.356 144.86 22.1479ZM44.2358 17.7064C44.2358 17.7775 44.131 17.8486 44.0262 17.8841L30.0156 18.9501C29.6663 18.9856 29.5614 18.9145 29.841 18.7369C31.4132 17.8486 35.2216 15.7522 37.9817 14.8284C41.301 13.7269 43.6419 13.6203 44.5153 13.6203C44.6551 13.6203 44.725 13.6914 44.725 13.7979L44.2358 17.7064ZM60.5174 15.9654L49.7911 17.1735C49.6514 17.1735 49.5466 17.1024 49.5466 16.9603C49.5116 16.4984 49.4767 15.5745 49.5116 15.1126C49.5815 14.6507 49.7911 13.8335 49.896 13.4782C49.9309 13.3716 50.0008 13.3005 50.1405 13.3005L59.7837 13.2294C59.8885 13.2294 59.9584 13.3005 59.9933 13.3716L60.762 15.6456C60.762 15.7877 60.6921 15.9654 60.5174 15.9654ZM68.763 13.7624C67.8197 14.8284 66.5968 15.1837 66.3522 15.2548C66.3173 15.2548 66.2824 15.2548 66.2824 15.2192L65.3739 13.4782C65.339 13.4426 65.3739 13.3716 65.4438 13.3716C65.8282 13.3716 67.1908 13.4426 68.763 13.6203C68.763 13.6558 68.798 13.6913 68.763 13.7624Z" fill="white"/>
<path d="M16.1798 28.366C12.3365 28.366 9.19199 31.4928 9.19199 35.3658C9.19199 39.2388 12.3365 42.3656 16.1798 42.3656C20.0231 42.3656 23.1676 39.2388 23.1676 35.3658C23.1676 31.4928 20.0231 28.366 16.1798 28.366ZM20.0231 37.7464L17.0533 36.5028V39.9139H15.3063L15.2714 36.5028L12.1967 37.782L11.4281 36.2541L14.6774 34.8684L12.4763 32.0613L14.0835 30.9599L16.04 33.6958L18.3111 31.0664L19.6737 32.2745L17.6123 34.8328L20.652 36.2896L20.0231 37.7464Z" fill="#202020"/>
<path d="M69.5666 27.5132C65.7233 27.5132 62.5788 30.64 62.5788 34.513C62.5788 38.386 65.7233 41.5128 69.5666 41.5128C73.4099 41.5128 76.5544 38.386 76.5544 34.513C76.5544 30.64 73.4099 27.5132 69.5666 27.5132ZM73.4099 36.8226L70.4401 35.579V38.99H68.6932L68.6582 35.579L65.5836 36.8581L64.8149 35.3302L68.0643 33.9445L65.8631 31.1375L67.4703 30.036L69.4269 32.772L71.6979 30.1426L73.0605 31.3507L70.9991 33.909L74.0388 35.3658L73.4099 36.8226Z" fill="#202020"/>
<path d="M83.2278 27.5843C82.2844 26.9803 82.4591 25.3813 82.4941 24.7062C82.529 23.0362 82.9483 19.8028 82.1796 19.1988C81.3411 18.5592 80.0134 17.1024 79.3146 16.3562C78.3014 15.2903 77.1833 14.0467 75.646 12.199C74.1087 10.3514 72.0124 10.5645 71.628 10.529C65.6884 10.1737 53.9838 9.67625 48.1141 9.92497C43.7467 10.1026 41.0214 10.6711 37.5275 11.6305C34.0336 12.5899 29.9108 14.6152 27.8494 15.7167C25.9976 16.7116 21.2809 19.412 20.617 19.8028C20.5472 19.8384 20.5122 19.8384 20.4074 19.7673L19.8484 19.4475C19.7436 19.3764 19.6038 19.3409 19.499 19.3764C18.6954 19.483 15.5509 20.016 12.1618 20.8688C8.24862 21.8637 5.17399 23.2849 4.19569 24.3509C3.56679 25.026 3.49691 25.8788 3.18246 26.5894C2.55356 27.9396 1.7849 28.0107 1.6102 30.0715C1.47045 31.9192 1.7849 34.2288 3.63667 35.5434C5.20892 36.6804 7.34021 36.8226 7.93417 36.8581C8.03899 36.8581 8.10886 36.787 8.10886 36.716C8.3185 33.7668 8.84258 27.3356 16.4593 27.4422C19.8484 27.4777 21.9797 29.3609 23.0628 31.3862C24.2507 33.5892 24.1109 36.0053 24.1459 36.716C24.1459 36.8226 24.2856 36.9292 24.4254 36.8936C26.1723 36.8936 38.5757 36.787 42.9081 36.6804C47.4502 36.5739 61.0066 35.9343 61.0066 35.9343C61.0764 35.9343 61.1463 35.8632 61.1463 35.7922C61.1813 34.6196 61.6355 26.5183 69.1124 26.2696C73.2352 26.163 75.4713 28.5081 76.5544 30.9243C77.393 32.8075 77.4279 34.7617 77.4978 35.6145C77.4978 35.8632 77.7424 36.0053 77.952 35.9343C78.6857 35.7211 80.223 35.2947 81.97 34.6907C84.4157 33.8734 84.0663 32.7364 84.1362 31.1019C84.1711 30.2137 84.3808 28.3305 83.2278 27.5843ZM44.2358 17.7064C44.2358 17.7775 44.131 17.8486 44.0262 17.8841L30.0156 18.9501C29.6662 18.9856 29.5614 18.9145 29.8409 18.7369C31.4132 17.8486 35.2216 15.7522 37.9817 14.8284C41.3009 13.7269 43.6419 13.6203 44.5153 13.6203C44.6551 13.6203 44.725 13.6913 44.725 13.7979L44.2358 17.7064ZM60.5174 15.9654L49.7911 17.1735C49.6514 17.1735 49.5466 17.1024 49.5466 16.9603C49.5116 16.4984 49.4767 15.5745 49.5116 15.1126C49.5815 14.6507 49.7911 13.8335 49.896 13.4782C49.9309 13.3716 50.0008 13.3005 50.1405 13.3005L59.7837 13.2294C59.8885 13.2294 59.9584 13.3005 59.9933 13.3716L60.762 15.6456C60.762 15.7877 60.6921 15.9654 60.5174 15.9654ZM68.763 13.7624C67.8197 14.8284 66.5968 15.1837 66.3522 15.2547C66.3173 15.2547 66.2824 15.2548 66.2824 15.2192L65.3739 13.4782C65.339 13.4426 65.3739 13.3716 65.4438 13.3716C65.8281 13.3716 67.1908 13.4426 68.763 13.6203C68.763 13.6558 68.798 13.6913 68.763 13.7624Z" fill="#202020"/>
<path d="M3.28729 27.9751C3.32223 27.6554 3.46199 26.8381 4.30052 25.8432C4.3704 25.7722 4.44028 25.7366 4.5451 25.7011C5.94266 25.559 7.89925 25.3813 8.77272 25.2747C8.94742 25.2392 9.08717 25.4524 8.98236 25.63L8.24864 26.696C8.2137 26.7671 8.14382 26.8026 8.07394 26.8026L3.39211 28.0817C3.35717 28.0817 3.28729 28.0462 3.28729 27.9751Z" fill="white"/>
<path d="M46.437 11.8081C45.1442 11.7726 40.3925 11.8792 35.6059 13.869C31.553 15.539 26.8362 18.5947 24.4603 20.1936C24.0411 20.4779 24.2856 21.1175 24.7748 21.0819L45.5984 19.483C45.7731 19.483 45.878 19.3409 45.9129 19.1988L46.7514 12.1635C46.7514 11.9858 46.6117 11.8081 46.437 11.8081ZM44.2358 17.7064C44.2358 17.7775 44.131 17.8485 44.0262 17.8841L30.0156 18.95C29.6663 18.9856 29.5614 18.9145 29.8409 18.7368C31.4132 17.8485 35.2216 15.7522 37.9817 14.8283C41.3009 13.7269 43.6419 13.6203 44.5153 13.6203C44.6551 13.6203 44.725 13.6913 44.725 13.7979L44.2358 17.7064Z" fill="white"/>
<path d="M62.9981 17.0669L61.5656 12.5543C61.356 11.8792 60.7271 11.4173 60.0283 11.4528L48.708 11.666C48.5683 11.666 48.4635 11.7726 48.4285 11.9148C48.2888 12.5543 47.9044 14.3309 47.8346 15.3613C47.7647 16.3562 47.9044 18.1328 47.9394 18.8435C47.9394 19.0211 48.1141 19.1277 48.2538 19.1277L62.7186 17.4933C62.9282 17.4222 63.033 17.2445 62.9981 17.0669ZM60.5174 15.9654L49.7911 17.1735C49.6514 17.1735 49.5466 17.1024 49.5466 16.9603C49.5116 16.4984 49.4767 15.5745 49.5116 15.1126C49.5815 14.6507 49.7911 13.8335 49.896 13.4782C49.9309 13.3716 50.0008 13.3005 50.1405 13.3005L59.7837 13.2294C59.8885 13.2294 59.9584 13.3005 59.9933 13.3716L60.762 15.6456C60.762 15.7877 60.6921 15.9654 60.5174 15.9654Z" fill="white"/>
<path d="M71.2088 12.4833C70.9293 12.0569 68.5185 11.7372 67.0161 11.6306C64.9896 11.524 62.5439 11.6306 62.5439 11.6306L65.2691 16.7471C65.3041 16.8537 65.4089 16.8893 65.5137 16.9248C66.0378 16.9959 67.8546 16.9603 69.357 15.5746C71.3136 13.798 71.5232 12.9452 71.2088 12.4833ZM68.763 13.7625C67.8197 14.8284 66.5968 15.1837 66.3522 15.2548C66.3173 15.2548 66.2824 15.2548 66.2824 15.2193L65.374 13.4782C65.339 13.4427 65.374 13.3716 65.4438 13.3716C65.8282 13.3716 67.1908 13.4427 68.763 13.6203C68.763 13.6559 68.798 13.6914 68.763 13.7625Z" fill="white"/>
<path d="M75.1918 12.4832L80.9917 18.8434C81.0616 18.9145 81.0266 19.0211 80.9218 19.0566L80.0134 19.3764C79.9086 19.412 79.8038 19.3764 79.7339 19.3409C79.2797 18.95 77.6375 17.5998 76.7641 16.4273C75.7159 15.0415 74.8075 13.6203 74.8075 13.1583C74.8075 12.8386 74.9472 12.6254 75.0521 12.5188C75.087 12.4122 75.1569 12.4122 75.1918 12.4832Z" fill="white"/>
<path d="M85.6037 30.3558L85.4988 30.9598C85.4988 31.0309 85.5338 31.0664 85.5687 31.1019C86.3024 31.3507 91.3337 32.9141 93.7095 33.0207C96.1552 33.1273 103.213 32.7719 103.877 32.7364C103.912 32.7364 103.947 32.7009 103.947 32.7009L104.68 31.5639C104.715 31.4928 104.68 31.3862 104.576 31.3862L97.0986 31.4217C97.0287 31.4217 96.9938 31.3862 96.9938 31.3151L96.889 28.8279C96.889 28.7568 96.854 28.7213 96.7841 28.7213H96.2601C96.2251 28.7213 96.1902 28.7568 96.1552 28.7924L95.1071 30.4624C95.0721 30.4979 95.0372 30.5334 95.0022 30.5334L85.6735 30.3202C85.6735 30.2847 85.6037 30.3202 85.6037 30.3558Z" fill="#202020"/>
<path d="M121.731 29.3608C118.446 29.3608 115.546 32.0968 115.546 35.4368C115.546 38.7768 118.446 41.5127 121.731 41.5127C125.015 41.5127 127.88 38.7768 127.88 35.4368C127.88 32.0968 125.05 29.3608 121.731 29.3608ZM121.731 39.8072C119.355 39.8072 117.328 37.8529 117.328 35.4723C117.328 33.0561 119.355 31.1374 121.731 31.1374C124.106 31.1374 126.133 33.0917 126.133 35.4723C126.133 37.8529 124.106 39.8072 121.731 39.8072Z" fill="#202020"/>
<path d="M121.731 39.2032C123.834 39.2032 125.539 37.517 125.539 35.4368C125.539 33.3567 123.834 31.6705 121.731 31.6705C119.627 31.6705 117.922 33.3567 117.922 35.4368C117.922 37.517 119.627 39.2032 121.731 39.2032Z" fill="#202020"/>
<path d="M114.044 33.7313C113.974 33.7313 113.904 33.6603 113.939 33.5892C114.044 32.6654 114.952 26.9803 122.045 26.9803C128.649 26.9803 129.767 32.7364 129.906 33.6247C129.906 33.6958 129.871 33.7313 129.802 33.7313H129.103C128.614 33.7313 128.194 33.4471 128.02 32.9852C127.461 31.5639 125.853 28.6858 122.045 28.6858C117.748 28.6858 116.21 31.2796 115.581 32.9852C115.407 33.4471 114.987 33.7669 114.498 33.7669L114.044 33.7313Z" fill="#202020"/>
<path d="M143.253 21.7215L97.8672 21.7571L97.9371 20.3713L143.148 20.4424L143.253 21.7215Z" fill="#F5A140"/>
<path d="M97.9022 21.6505C97.8672 21.6505 97.8672 21.6505 97.8672 21.686C97.7624 23.0007 97.7275 24.422 97.6926 25.9143C97.6926 27.5488 97.7624 29.0766 97.8672 30.4979C97.8672 30.5335 97.9022 30.5335 97.9022 30.5335C100.558 30.5335 103.248 30.569 105.938 30.569C108.628 30.569 111.354 30.569 114.009 30.5335C114.009 30.5335 114.044 30.5335 114.044 30.4979C114.219 30.1071 114.498 29.6096 114.883 29.1122C115.896 27.833 117.817 26.092 121.87 26.092C128.264 26.092 129.732 30.1426 129.836 30.4979L129.871 30.5335C132.212 30.6045 134.623 30.6401 137.069 30.6045C139.13 30.6045 141.157 30.569 143.148 30.5335C143.183 30.5335 143.183 30.5335 143.183 30.4979C143.253 29.0056 143.288 27.4422 143.288 25.8433C143.288 24.422 143.253 23.0362 143.183 21.686C143.183 21.6505 143.148 21.6505 143.148 21.6505C135.462 21.5439 127.67 21.4728 119.774 21.4728C112.437 21.4728 105.135 21.5439 97.9022 21.6505Z" fill="#202020"/>
<path d="M97.9371 2.53436C97.9371 2.53436 97.9371 2.56989 97.9371 2.53436C97.7974 5.30585 97.7275 8.21946 97.6926 11.2041C97.6926 14.402 97.7624 17.4577 97.9022 20.3713C104.645 20.4424 111.424 20.4779 118.202 20.4779C126.552 20.5135 134.833 20.4779 143.078 20.4424C143.183 17.5288 143.253 14.5086 143.253 11.3463C143.253 8.29052 143.183 5.34138 143.078 2.53436H97.9371Z" fill="#202020"/>
</svg>
