<svg width="88" height="74" viewBox="0 0 88 74" fill="none" xmlns="http://www.w3.org/2000/svg">
<path d="M52.9398 52.874H4.93367V4.93367H82.8959V52.874H74.8577H73.5684H73.4779L73.4083 52.9319L72.3032 53.8528L72.3027 53.8532L57.9255 65.8941L56.8719 56.4117L56.5036 53.0964L56.4789 52.874H56.2551H52.9398ZM85.7245 0.75H1.55255C1.32983 0.75 1.11687 0.805849 0.961361 0.961361C0.805849 1.11687 0.75 1.32983 0.75 1.55255V56.4393C0.75 56.662 0.805849 56.875 0.961361 57.0305C1.11687 57.186 1.32983 57.2418 1.55255 57.2418H52.7172L54.5319 72.848C54.5422 73.2225 54.9054 73.45 55.3342 73.45C55.34 73.45 55.3462 73.45 55.3525 73.4501C55.4254 73.4505 55.5292 73.4511 55.6302 73.4006C55.6826 73.3743 55.7251 73.3399 55.7604 73.3081C55.7932 73.2786 55.8304 73.2415 55.8715 73.2004L74.9484 57.2418H86.277C86.4998 57.2418 86.7127 57.186 86.8682 57.0305C87.0237 56.875 87.0796 56.662 87.0796 56.4393V1.92092C87.0796 1.55358 86.8939 1.25519 86.6377 1.05591C86.3842 0.858749 86.0532 0.75 85.7245 0.75Z" fill="#F4A040" stroke="#F4A040" stroke-width="0.5"/>
<path d="M28.6275 31.4562C31.5121 31.4562 33.8505 29.1178 33.8505 26.2332C33.8505 23.3487 31.5121 21.0103 28.6275 21.0103C25.743 21.0103 23.4046 23.3487 23.4046 26.2332C23.4046 29.1178 25.743 31.4562 28.6275 31.4562Z" fill="#F4A040" stroke="#F4A040" stroke-width="0.5"/>
<path d="M43.9148 31.4562C46.7993 31.4562 49.1377 29.1178 49.1377 26.2332C49.1377 23.3487 46.7993 21.0103 43.9148 21.0103C41.0302 21.0103 38.6918 23.3487 38.6918 26.2332C38.6918 29.1178 41.0302 31.4562 43.9148 31.4562Z" fill="#F4A040" stroke="#F4A040" stroke-width="0.5"/>
<path d="M59.202 31.4562C62.0866 31.4562 64.425 29.1178 64.425 26.2332C64.425 23.3487 62.0866 21.0103 59.202 21.0103C56.3175 21.0103 53.9791 23.3487 53.9791 26.2332C53.9791 29.1178 56.3175 31.4562 59.202 31.4562Z" fill="#F4A040" stroke="#F4A040" stroke-width="0.5"/>
</svg>
