<svg width="212" height="30" viewBox="0 0 212 30" fill="none" xmlns="http://www.w3.org/2000/svg">
<path d="M61.7703 4.04934H37.0737V0H35.6206L34.6178 4.04934H31.9204H7.46436L4.76978 14.934H0.351507L0 16.3561L4.34872 16.6276L2.07239 25.8205H26.7672V29.8727H28.2202L29.223 25.8205H31.9195H56.3755L59.071 14.9359H63.4893L63.8408 13.5138L59.4921 13.2414L61.7703 4.04934ZM57.8332 13.138L48.2523 12.5435C42.3641 12.1584 37.7081 12.0109 37.1338 5.68373H59.681L57.8332 13.138ZM6.00758 16.7318L15.5904 17.3283C21.4786 17.7096 26.1346 17.8581 26.7089 24.188H4.16075L6.00758 16.7318ZM55.0973 24.188H31.9204H29.629L31.9204 14.934H6.45401L8.74444 5.68373H31.9204H34.2118L31.9204 14.9359H57.3896L55.0973 24.188Z" fill="#404041"/>
<path d="M159.357 19.9866L161.83 10.0055C162.122 8.83232 162.94 8.13724 164.187 8.13724H177.402H178.246L179.255 4.05878H177.401H157.66C153.8 4.05878 150.59 5.36065 149.585 9.41563L146.808 20.6262C146.802 20.6535 146.796 20.6816 146.791 20.707C146.591 21.5543 146.608 22.2907 146.791 22.9228C147.355 24.886 149.526 25.8309 151.906 25.8309H153.391H173.861L174.878 21.7271H160.767C159.493 21.7262 159.032 21.2997 159.357 19.9866Z" fill="#404041"/>
<path d="M115.975 4.11884H114.931H101.412L93.2678 14.4023L90.3129 4.11884H78.137L72.7582 25.8299H78.1154L81.5402 12.0034L85.5177 25.7999H90.78L101.642 12.1104L98.296 25.8299H110.594L114.931 8.33161L115.975 4.11884Z" fill="#404041"/>
<path d="M203.822 4.17804H191.878H191.09L177.401 23.2487L175.549 25.8299H177.401H181.708L184.583 21.8323H191.878H197.642L199.026 25.8299H211.369L203.822 4.17804ZM191.878 17.6984H187.554L191.878 11.6868L193.372 9.6044L196.199 17.6984H191.878Z" fill="#404041"/>
<path d="M146.807 7.83378C146.988 6.99968 146.967 6.3478 146.792 5.83776C146.314 4.45511 144.701 4.11884 142.88 4.11884H119.338L118.328 8.19166H133.329C133.976 8.19166 134.282 8.40676 134.102 9.12721L133.457 11.7357C133.241 12.5998 132.537 12.8008 131.697 12.8008H123.995L122.983 16.8783H131.036C131.733 16.8783 132.151 17.1733 131.974 17.8928L131.298 20.6149C131.071 21.5345 130.773 21.7252 129.796 21.7252H114.93H114.9L113.885 25.829H114.93H138.272C139.526 25.829 140.641 25.4232 141.519 24.7131C142.407 23.9936 143.061 22.9538 143.374 21.7007L144.31 17.9266C144.681 16.4218 143.981 15.4393 142.648 14.7029C144.749 13.9956 145.475 13.2122 146.009 11.0622C146.032 10.9654 146.101 10.6911 146.186 10.3633C146.376 9.61752 146.639 8.58241 146.792 7.91175L146.807 7.83378Z" fill="#404041"/>
</svg>
