<svg width="75" height="73" viewBox="0 0 75 73" fill="none" xmlns="http://www.w3.org/2000/svg">
<path fill-rule="evenodd" clip-rule="evenodd" d="M58.2298 51.2421C55.4348 49.6116 51.7081 47.7483 48.4472 49.1458C45.8851 50.0775 44.2547 54.0371 42.6242 56.1334C41.6925 57.0651 40.7609 57.298 39.5963 56.8321C30.0466 53.1054 22.8261 46.8166 17.7019 37.9657C16.7702 36.5681 17.0031 35.6365 17.9348 34.239C19.5652 32.3756 21.4286 30.2793 21.8944 27.7172C22.3602 25.1551 20.9627 22.3601 20.0311 20.0309C18.6335 17.2359 17.236 13.0433 14.441 11.4129C11.646 10.0154 8.38509 10.947 5.82298 12.8104C1.86335 16.0713 0 21.1955 0 26.3197C0 27.7172 0.232919 29.1147 0.465839 30.5122C1.39752 33.7731 2.79503 37.034 4.65839 40.0619C6.0559 42.3911 7.45342 44.4874 9.08385 46.5837C14.2081 53.5713 20.4969 59.3942 27.7174 64.0526C31.4441 66.3818 35.4037 68.2452 39.3634 69.6427C44.0217 71.0402 47.9814 72.6706 52.8727 71.739C57.9969 70.8073 63.1211 67.5464 65.2174 62.6551C65.9162 61.2576 66.1491 59.6272 65.6832 57.9967C64.9845 54.7359 60.7919 52.8725 58.2298 51.2421Z" fill="#F4A040"/>
<path d="M59.1615 39.1304C59.1615 39.5962 58.6957 39.8291 58.4628 39.5962L54.7361 38.6645C54.2702 38.6645 54.0373 38.1987 54.2702 37.9658C54.2702 37.9658 54.5031 36.8012 54.5031 36.1024C54.5031 35.6366 54.5031 34.9378 54.5031 34.472C54.0373 26.3198 47.7485 20.031 39.5963 19.5651C39.3634 19.5651 38.8976 19.5651 38.6646 19.5651C36.8013 19.5651 35.1708 19.7981 33.5404 20.4968C33.0746 20.7297 32.8417 20.4968 32.6087 20.031L31.2112 16.5372C30.9783 16.0714 31.2112 15.6055 31.6771 15.6055C34.0063 14.6738 36.3354 14.4409 38.6646 14.4409C39.1305 14.4409 39.5963 14.4409 39.8292 14.4409C50.5435 14.9068 58.9286 23.5248 59.3945 34.2391C59.3945 34.9378 59.3945 35.6366 59.3945 36.3353C59.3945 37.4999 59.1615 39.1304 59.1615 39.1304Z" fill="#F4A040"/>
<path d="M75 38.6646C75 39.1304 74.5342 39.3634 74.3012 39.1304L70.5745 38.6646C70.1087 38.6646 69.8758 38.1988 70.1087 37.9658C70.1087 37.9658 70.3416 36.8012 70.3416 35.8696C70.3416 34.705 70.3416 33.7733 70.3416 32.6087C69.177 17.7019 57.2981 6.0559 42.3913 5.12422C41.6926 5.12422 40.7609 5.12422 40.0621 5.12422C37.7329 5.12422 35.4037 5.59006 33.3075 6.0559C32.8416 6.0559 32.6087 6.0559 32.3758 5.59006L31.2112 2.09627C31.2112 1.63043 31.2112 1.39752 31.677 1.1646C34.4721 0.465839 37.2671 0 39.8292 0C40.7609 0 41.6925 0 42.6242 0C60.0932 0.931677 74.0683 14.6739 75 32.3758C75 33.5404 75 34.9379 75 36.1025C75 37.2671 75 38.6646 75 38.6646Z" fill="#F4A040"/>
</svg>
