<svg width="14" height="15" viewBox="0 0 14 15" fill="none" xmlns="http://www.w3.org/2000/svg">
<path d="M12.5393 2.7558C12.8718 3.19139 13.1534 3.66461 13.3781 4.16598L7.00177 8.92843L4.33691 7.23588V5.19967L7.00177 6.89221L12.5393 2.7558Z" fill="#21A038"/>
<path d="M1.61718 7.09224C1.61718 7.00087 1.61937 6.91011 1.62377 6.81987L0.00879545 6.73969C0.00329859 6.85664 1.95162e-06 6.97472 1.95162e-06 7.09389C-0.000685177 8.02503 0.180077 8.94711 0.531925 9.80726C0.883769 10.6674 1.39977 11.4488 2.05033 12.1064L3.19587 10.9463C2.6951 10.441 2.29783 9.8403 2.0269 9.17889C1.75597 8.51749 1.61673 7.80834 1.61718 7.09224Z" fill="url(#paint0_linear_518_98)"/>
<path d="M7.00023 1.63815C7.09037 1.63815 7.17994 1.6415 7.26899 1.64595L7.3498 0.0090915C7.23403 0.00352207 7.11748 0.000737682 7.00023 0.000737682C6.08079 -0.000398349 5.17024 0.182487 4.32079 0.538892C3.47134 0.895298 2.69974 1.41821 2.05029 2.07759L3.19584 3.23826C3.69461 2.7307 4.28749 2.32804 4.94039 2.05344C5.59329 1.77884 6.29329 1.6377 7.00023 1.63815Z" fill="url(#paint1_linear_518_98)"/>
<path d="M7.00052 12.5464C6.91039 12.5464 6.82077 12.5464 6.7312 12.5391L6.65039 14.1754C6.76655 14.1814 6.88328 14.1844 7.00052 14.1844C7.91957 14.1853 8.82969 14.0023 9.67869 13.6458C10.5277 13.2893 11.2988 12.7663 11.9477 12.1069L10.8044 10.9468C10.3055 11.4541 9.7127 11.8566 9.05993 12.1311C8.40716 12.4056 7.70729 12.5467 7.00052 12.5464Z" fill="url(#paint2_linear_518_98)"/>
<path d="M10.035 2.5898L11.396 1.57338C10.1521 0.552755 8.59924 -0.00283314 6.99854 1.08646e-05V1.63798C8.08246 1.63662 9.14122 1.96851 10.035 2.5898Z" fill="url(#paint3_linear_518_98)"/>
<path d="M13.9998 7.09212C14.0007 6.66601 13.9639 6.24064 13.8898 5.82117L12.3832 6.94619C12.3832 6.99467 12.3832 7.04311 12.3832 7.09212C12.3836 7.85417 12.2259 8.60782 11.9204 9.30418C11.6149 10.0005 11.1684 10.6241 10.6099 11.1344L11.6966 12.3514C12.4228 11.6871 13.003 10.8757 13.3998 9.96975C13.7966 9.06372 14.001 8.08332 13.9998 7.09212Z" fill="#21A038"/>
<path d="M7.00026 12.5463C6.24808 12.5466 5.50422 12.3868 4.81684 12.0773C4.12949 11.7678 3.51395 11.3155 3.01008 10.7496L1.80957 11.8502C2.46505 12.586 3.26586 13.1741 4.16007 13.5762C5.05428 13.9783 6.02191 14.1855 7.00026 14.1843V12.5463Z" fill="url(#paint4_linear_518_98)"/>
<path d="M3.39047 3.04987L2.30429 1.83295C1.57792 2.49703 0.997423 3.3084 0.600454 4.21442C0.203491 5.12043 -0.00108226 6.10088 4.30577e-06 7.09216H1.61718C1.61685 6.33015 1.77453 5.57651 2.08001 4.88015C2.38549 4.18381 2.83195 3.56024 3.39047 3.04987Z" fill="url(#paint5_linear_518_98)"/>
<defs>
<linearGradient id="paint0_linear_518_98" x1="2.37739" y1="11.902" x2="0.56887" y2="6.74209" gradientUnits="userSpaceOnUse">
<stop offset="0.14" stop-color="#F1E813"/>
<stop offset="0.3" stop-color="#E6E418"/>
<stop offset="0.58" stop-color="#C9DA26"/>
<stop offset="0.89" stop-color="#A2CC39"/>
</linearGradient>
<linearGradient id="paint1_linear_518_98" x1="2.51203" y1="2.3672" x2="7.07785" y2="0.649901" gradientUnits="userSpaceOnUse">
<stop offset="0.06" stop-color="#0FA7DF"/>
<stop offset="0.54" stop-color="#0098F8"/>
<stop offset="0.92" stop-color="#0290EA"/>
</linearGradient>
<linearGradient id="paint2_linear_518_98" x1="6.54377" y1="13.1958" x2="11.6964" y2="12.0469" gradientUnits="userSpaceOnUse">
<stop offset="0.12" stop-color="#A2CC39"/>
<stop offset="0.28" stop-color="#86C239"/>
<stop offset="0.87" stop-color="#219F38"/>
</linearGradient>
<linearGradient id="paint3_linear_518_98" x1="6.66215" y1="0.548601" x2="11.0717" y2="1.89165" gradientUnits="userSpaceOnUse">
<stop offset="0.06" stop-color="#0290EA"/>
<stop offset="0.79" stop-color="#0C89CA"/>
</linearGradient>
<linearGradient id="paint4_linear_518_98" x1="2.21524" y1="11.6508" x2="7.01936" y2="13.4228" gradientUnits="userSpaceOnUse">
<stop offset="0.13" stop-color="#F1E813"/>
<stop offset="0.3" stop-color="#EAE616"/>
<stop offset="0.53" stop-color="#D8DF1F"/>
<stop offset="0.8" stop-color="#BAD52D"/>
<stop offset="0.98" stop-color="#A2CC39"/>
</linearGradient>
<linearGradient id="paint5_linear_518_98" x1="0.602458" y1="7.29043" x2="2.56909" y2="2.24121" gradientUnits="userSpaceOnUse">
<stop offset="0.07" stop-color="#A2CC39"/>
<stop offset="0.26" stop-color="#81C45E"/>
<stop offset="0.92" stop-color="#0FA7DF"/>
</linearGradient>
</defs>
</svg>
