<svg width="226" height="39" viewBox="0 0 226 39" fill="none" xmlns="http://www.w3.org/2000/svg">
<path d="M0 38.6816L9.39174 0H12.8906L22.3284 38.6816H19.2899L16.988 27.9765H5.3404L2.99247 38.6816H0ZM5.80078 26.0663H16.5737L11.1412 3.14388L5.80078 26.0663Z" fill="white"/>
<path d="M27 39V8H33.6768C35.0945 8 36.2835 8.18235 37.2439 8.54706C38.2043 8.91176 38.9817 9.41323 39.5762 10.0971C40.1707 10.7809 40.5823 11.6015 40.8567 12.5588C41.1311 13.5162 41.2683 14.5647 41.2683 15.7044C41.2683 16.7074 41.1311 17.6647 40.9024 18.5765C40.6738 19.4882 40.2622 20.3088 39.7134 20.9471C39.1646 21.5853 38.3415 22.0412 37.3354 22.2235C38.5244 22.5426 39.4848 23.1353 40.1707 23.9103C40.8567 24.7309 41.3598 25.6426 41.5884 26.6912C41.8628 27.7397 42 28.8338 42 29.9735C42 31.2044 41.9085 32.3441 41.6799 33.4382C41.4512 34.5324 41.0854 35.4897 40.5366 36.3103C39.9878 37.1309 39.2561 37.7691 38.2957 38.225C37.3354 38.6809 36.1463 38.9544 34.6829 38.9544H27V39ZM29.9268 21.3574H34.1341C35.3232 21.3574 36.2378 21.1294 36.878 20.6279C37.5183 20.1721 37.9756 19.4882 38.2043 18.6676C38.4787 17.8471 38.5701 16.8441 38.5701 15.7044C38.5701 14.4735 38.3872 13.425 38.0671 12.6044C37.7012 11.7838 37.1067 11.1912 36.2835 10.8265C35.4604 10.4618 34.2256 10.2338 32.625 10.2338H29.8811V21.3574H29.9268ZM29.9268 36.8118H34.1341C36.1463 36.8118 37.5183 36.2647 38.2043 35.1706C38.8902 34.0765 39.2104 32.3441 39.2104 30.0191C39.2104 28.7882 39.0732 27.6485 38.753 26.6912C38.4329 25.7338 37.9299 24.9588 37.1982 24.4118C36.4665 23.8647 35.4604 23.5912 34.2256 23.5912H29.9726V36.8118H29.9268Z" fill="white"/>
<path d="M50.0849 39V10.2761H44V8H59V10.2761H53.1038V39H50.0849Z" fill="white"/>
<path d="M70.0457 39C67.9886 39 66.3429 38.5986 65.2 37.8403C64.0571 37.0374 63.2343 35.9669 62.7314 34.5396C62.2743 33.1122 62 31.5065 62 29.6777V17.0993C62 15.2705 62.2286 13.6647 62.7314 12.282C63.2343 10.8993 64.0571 9.87338 65.2457 9.11511C66.3886 8.35683 67.9886 8 70.0457 8C72.0571 8 73.6114 8.35683 74.8 9.11511C75.9429 9.87338 76.8114 10.8993 77.2686 12.282C77.7714 13.6647 78 15.2705 78 17.0993V29.7223C78 31.5511 77.7714 33.1568 77.2686 34.5396C76.8114 35.9223 75.9886 37.0374 74.8457 37.8403C73.6571 38.5986 72.0571 39 70.0457 39ZM70.0457 36.7252C71.4171 36.7252 72.4229 36.4576 73.1543 35.9223C73.8857 35.387 74.3429 34.6288 74.6171 33.6921C74.8914 32.7108 75.0286 31.5957 75.0286 30.3468V16.564C75.0286 15.2705 74.8914 14.2 74.6171 13.2187C74.3429 12.282 73.84 11.5237 73.1543 11.0331C72.4229 10.5424 71.4171 10.2748 70.0457 10.2748C68.6743 10.2748 67.6229 10.5424 66.8914 11.0331C66.16 11.5237 65.6571 12.282 65.3829 13.2187C65.1086 14.1554 64.9714 15.2705 64.9714 16.564V30.3022C64.9714 31.5957 65.1086 32.7108 65.3829 33.6475C65.6571 34.6288 66.16 35.3424 66.8914 35.8777C67.5771 36.4576 68.6286 36.7252 70.0457 36.7252Z" fill="white"/>
<path d="M89.8661 38.6816V2.10918H80.9347V0H101.606V2.10918H92.8585V38.6816H89.8661Z" fill="white"/>
<path d="M105 38.9545V8H113.526C115.671 8 117.345 8.36417 118.6 9.04699C119.855 9.72981 120.692 10.6858 121.215 11.9148C121.738 13.1439 122 14.6006 122 16.2394C122 17.696 121.738 19.0162 121.163 20.2907C120.64 21.5198 119.751 22.5213 118.495 23.2496C117.24 23.978 115.618 24.3421 113.578 24.3421H108.348V39H105V38.9545ZM108.348 22.1116H112.585C113.997 22.1116 115.2 21.9295 116.089 21.5653C116.978 21.2012 117.658 20.5639 118.025 19.699C118.443 18.8341 118.652 17.6505 118.652 16.1938C118.652 14.6006 118.495 13.3715 118.129 12.5066C117.763 11.6417 117.188 11.0044 116.298 10.6858C115.409 10.3216 114.206 10.185 112.637 10.185H108.348V22.1116Z" fill="white"/>
<path d="M127 38.9545V8H139.895V10.2761H130.407V21.884H138.165V24.0235H130.407V36.815H140V39H127V38.9545Z" fill="white"/>
<path d="M144 39V7.94231H147.138V32.5601L159.248 7.94231H162V39H158.862V14.2452L146.807 39H144ZM153.193 5.56731C151.431 5.56731 150.055 5.15625 149.119 4.37981C148.183 3.55769 147.688 2.46154 147.633 1H149.78C149.835 2.00481 150.11 2.78125 150.716 3.23798C151.321 3.69471 152.147 3.92308 153.138 3.92308C154.183 3.92308 155.009 3.69471 155.615 3.23798C156.22 2.78125 156.55 2.05048 156.605 1H158.752C158.697 2.46154 158.257 3.60337 157.321 4.37981C156.385 5.15625 155.009 5.56731 153.193 5.56731Z" fill="white"/>
<path d="M165 39V36.7695C165.834 36.7239 166.563 36.6784 167.136 36.5418C167.71 36.4053 168.231 36.0866 168.596 35.5859C169.012 35.0852 169.325 34.3113 169.586 33.2188C169.846 32.1263 170.107 30.6241 170.367 28.7122C170.628 26.8003 170.888 24.3421 171.149 21.3833L172.191 8H186V38.9545H182.613V10.185H175.161L174.328 21.3377C174.067 24.2511 173.806 26.7548 173.546 28.8032C173.285 30.8517 172.973 32.536 172.608 33.9016C172.243 35.2217 171.722 36.2687 171.097 37.0426C170.471 37.8164 169.638 38.3172 168.648 38.5903C167.762 38.909 166.511 39 165 39Z" fill="white"/>
<path d="M192 38.9545V8H204.895V10.2761H195.407V21.884H203.165V24.0235H195.407V36.815H205V39H192V38.9545Z" fill="white"/>
<path d="M209 38.9545V8H217.526C219.671 8 221.345 8.36417 222.6 9.04699C223.855 9.72981 224.692 10.6858 225.215 11.9148C225.738 13.1439 226 14.6006 226 16.2394C226 17.696 225.738 19.0162 225.163 20.2907C224.64 21.5198 223.751 22.5213 222.495 23.2496C221.24 23.978 219.618 24.3421 217.578 24.3421H212.348V39H209V38.9545ZM212.348 22.1116H216.585C217.997 22.1116 219.2 21.9295 220.089 21.5653C220.978 21.2012 221.658 20.5639 222.025 19.699C222.443 18.8341 222.652 17.6505 222.652 16.1938C222.652 14.6006 222.495 13.3715 222.129 12.5066C221.763 11.6417 221.188 11.0044 220.298 10.6858C219.409 10.3216 218.206 10.185 216.637 10.185H212.348V22.1116Z" fill="white"/>
</svg>
