<svg width="60" height="22" viewBox="0 0 60 22" fill="none" xmlns="http://www.w3.org/2000/svg">
<path d="M40.3864 18.2009C39.9998 18.921 39.4844 18.8696 38.9174 18.8696V21.2614C38.9174 21.2614 39.3813 21.3643 40.1029 21.3643C41.237 21.3643 42.1648 20.8757 42.7576 19.6154C43.3504 18.3552 43.4277 16.0147 43.7112 13.4685H46.469V21.1328H49.1236V11.1538H41.2885C40.9792 14.4716 40.7988 17.4036 40.3864 18.2009Z" fill="white"/>
<path d="M33.5823 10.9229C31.0823 10.9229 29.2266 12.5174 28.7884 14.9865H27.4224V11.1543H24.7678V21.1076H27.4224V17.2755H28.7884C29.2266 19.7445 31.0565 21.3391 33.5823 21.3391C36.4689 21.3391 38.4535 19.2301 38.4535 16.1181C38.4535 13.0061 36.4431 10.9229 33.5823 10.9229ZM33.5823 18.9472C32.2163 18.9472 31.2884 17.867 31.2884 16.1181C31.2884 14.3949 32.2163 13.289 33.5823 13.289C34.9483 13.289 35.8761 14.3692 35.8761 16.1181C35.8761 17.867 34.9483 18.9472 33.5823 18.9472Z" fill="white"/>
<path d="M55.2835 10.9221C53.9433 10.9221 52.6546 11.1022 51.5206 11.4622V13.8284C51.5206 13.8284 52.9639 13.2883 54.9227 13.2883C57.1135 13.2883 57.3454 14.3942 57.3454 14.9086V15.0886C57.3454 15.0886 56.2629 14.9086 55.1289 14.9086C51.4691 14.9086 50.6959 16.8118 50.6959 18.1235C50.6959 19.4352 51.5206 21.3384 54.4072 21.3384C55.9021 21.3384 56.9588 20.644 57.4743 20.0524H57.5774V21.0812H60.0001V15.5258C60.0001 13.7769 59.6135 10.9221 55.2835 10.9221ZM57.3712 18.0463C57.3712 18.0463 56.6753 19.1008 55.0773 19.1008C54.0722 19.1008 53.6083 18.6636 53.6083 18.0206C53.6083 17.3776 54.1237 16.8118 55.9021 16.8118C56.7526 16.8118 57.397 16.8118 57.397 16.8118V18.0463H57.3712Z" fill="white"/>
<path d="M10.9016 20.9016C12.3449 16.4779 15.8501 13.0058 20.2831 11.5398C20.5924 11.437 20.747 11.1026 20.6439 10.8197C20.5924 10.6397 20.4635 10.5111 20.2831 10.4596C15.8243 9.01937 12.3449 5.54728 10.9016 1.09786C10.7985 0.789233 10.4634 0.634918 10.1799 0.737794C9.99951 0.789233 9.87064 0.917829 9.8191 1.09786C8.35001 5.54728 4.87059 9.01937 0.437557 10.4596C0.128276 10.5625 -0.0263652 10.8969 0.0767286 11.1798C0.128276 11.3598 0.257143 11.4884 0.437557 11.5398C4.87059 12.9801 8.35001 16.4522 9.8191 20.9016C9.92219 21.2103 10.2572 21.3646 10.5408 21.2617C10.6954 21.2103 10.8243 21.0817 10.9016 20.9016Z" fill="url(#paint0_radial_334_31)"/>
<path opacity="0.8" d="M0.437622 11.5398C4.87066 12.9801 8.35007 16.4522 9.81916 20.9016C9.92225 21.2102 10.2573 21.3645 10.5408 21.2616C10.7212 21.2102 10.8501 21.0816 10.9016 20.9016C12.345 16.4779 15.8501 13.0058 20.2832 11.5398C18.1698 12.2342 14.613 12.7743 10.3604 12.7743C6.10778 12.7743 2.52527 12.2342 0.437622 11.5398Z" fill="url(#paint1_radial_334_31)"/>
<defs>
<radialGradient id="paint0_radial_334_31" cx="0" cy="0" r="1" gradientUnits="userSpaceOnUse" gradientTransform="translate(20.0773 0.278732) scale(22.9963 22.9479)">
<stop offset="0.2281" stop-color="#00FFFE"/>
<stop offset="0.3047" stop-color="#11F3FE"/>
<stop offset="0.4569" stop-color="#3ED3FE"/>
<stop offset="0.6706" stop-color="#86A0FF"/>
<stop offset="0.9352" stop-color="#E95AFF"/>
<stop offset="0.9531" stop-color="#F055FF"/>
</radialGradient>
<radialGradient id="paint1_radial_334_31" cx="0" cy="0" r="1" gradientUnits="userSpaceOnUse" gradientTransform="translate(17.3234 12.376) scale(12.9954 12.9681)">
<stop stop-color="#053BF2"/>
<stop offset="0.0908682" stop-color="#0F3CF3" stop-opacity="0.9091"/>
<stop offset="0.2469" stop-color="#2B3FF4" stop-opacity="0.7531"/>
<stop offset="0.4492" stop-color="#5844F7" stop-opacity="0.5508"/>
<stop offset="0.69" stop-color="#964BFA" stop-opacity="0.31"/>
<stop offset="0.9606" stop-color="#E454FE" stop-opacity="0.0393646"/>
<stop offset="1" stop-color="#F055FF" stop-opacity="0"/>
</radialGradient>
</defs>
</svg>
